<svg version="1.1" xmlns="http://www.w3.org/2000/svg" xmlns:xlink="http://www.w3.org/1999/xlink" height="35px" width="25px" viewBox="0 -100 400 850">
  <svg id="link">
    <a xlink:href="https://pwn.browser.rip">
    <g id="coffin">
    <path id="path1" d="M106.958 17.500 C 105.477 20.802,103.771 24.471,101.795 28.600 C 99.864 32.635,97.237 38.207,95.007 43.000 C 92.348 48.713,92.204 48.998,91.900 49.133 C 91.735 49.207,91.600 49.488,91.600 49.758 C 91.600 50.216,90.077 53.713,89.190 55.295 C 88.975 55.677,88.800 56.262,88.800 56.595 C 88.800 56.928,88.620 57.200,88.400 57.200 C 88.180 57.200,88.000 57.452,88.000 57.759 C 88.000 58.066,87.389 59.551,86.642 61.059 C 85.896 62.567,84.973 64.520,84.591 65.400 C 83.951 66.876,83.240 68.448,80.518 74.400 C 79.964 75.610,78.901 77.833,78.156 79.341 C 77.410 80.849,76.800 82.334,76.800 82.641 C 76.800 82.948,76.620 83.200,76.400 83.200 C 76.180 83.200,76.000 83.436,76.000 83.725 C 76.000 84.014,75.664 84.959,75.253 85.825 C 74.842 86.691,74.196 88.120,73.819 89.000 C 73.079 90.726,72.871 91.163,71.919 93.000 C 71.577 93.660,71.119 94.650,70.902 95.200 C 70.684 95.750,69.832 97.640,69.007 99.400 C 67.208 103.239,66.005 105.848,64.672 108.800 C 61.947 114.831,58.248 122.449,53.891 131.000 C 52.834 133.075,52.230 134.420,49.440 140.900 C 49.133 141.615,48.053 143.960,47.040 146.111 C 46.028 148.262,45.200 150.110,45.200 150.217 C 45.200 150.324,44.414 152.074,43.454 154.106 C 42.494 156.138,41.431 158.430,41.093 159.200 C 39.632 162.524,38.542 164.898,36.342 169.550 C 35.054 172.272,34.000 174.567,34.000 174.648 C 34.000 174.730,33.350 176.192,32.555 177.898 C 31.760 179.604,28.866 185.860,26.124 191.800 C 23.382 197.740,20.519 203.898,19.762 205.484 C 16.648 212.008,16.710 211.755,17.344 215.362 C 17.658 217.143,18.126 220.220,18.386 222.200 C 18.645 224.180,19.101 227.240,19.398 229.000 C 19.695 230.760,20.142 233.640,20.393 235.400 C 20.643 237.160,21.011 239.680,21.211 241.000 C 21.410 242.320,21.846 245.200,22.178 247.400 C 22.511 249.600,23.239 254.550,23.796 258.400 C 24.354 262.250,24.981 266.480,25.189 267.800 C 26.101 273.577,26.433 275.813,27.391 282.600 C 27.949 286.560,28.663 291.420,28.977 293.400 C 29.290 295.380,29.745 298.350,29.988 300.000 C 30.230 301.650,30.594 304.080,30.797 305.400 C 31.380 309.198,32.365 315.929,32.815 319.200 C 33.483 324.048,33.956 327.228,34.420 330.000 C 34.660 331.430,35.023 333.815,35.228 335.300 C 35.970 340.687,36.380 343.475,37.005 347.400 C 37.669 351.571,38.173 355.063,38.795 359.800 C 39.783 367.319,40.038 369.046,40.242 369.600 C 40.364 369.930,40.643 371.640,40.862 373.400 C 41.497 378.514,41.872 381.133,42.577 385.400 C 42.940 387.600,43.422 390.750,43.647 392.400 C 43.872 394.050,44.204 396.480,44.385 397.800 C 44.567 399.120,44.903 401.774,45.133 403.698 C 45.362 405.622,45.660 407.373,45.794 407.590 C 45.928 407.806,46.217 409.382,46.436 411.092 C 46.656 412.801,46.994 415.370,47.187 416.800 C 47.381 418.230,47.737 420.908,47.978 422.751 C 48.219 424.595,48.515 426.263,48.636 426.458 C 48.757 426.654,49.036 428.296,49.257 430.107 C 49.478 431.918,49.815 434.480,50.005 435.800 C 50.196 437.120,50.513 439.655,50.710 441.433 C 50.908 443.211,51.185 444.852,51.327 445.081 C 51.468 445.310,51.782 447.005,52.025 448.849 C 52.268 450.692,52.619 453.280,52.805 454.600 C 52.991 455.920,53.310 458.369,53.513 460.043 C 53.716 461.717,53.990 463.260,54.121 463.473 C 54.345 463.834,54.796 466.626,55.628 472.800 C 56.305 477.818,56.732 480.634,57.388 484.400 C 58.269 489.458,58.729 492.426,59.155 495.800 C 59.350 497.340,59.615 498.870,59.744 499.200 C 59.963 499.760,60.364 502.360,61.239 508.900 C 61.437 510.385,61.775 512.815,61.989 514.300 C 62.203 515.785,62.530 518.360,62.717 520.022 C 62.904 521.685,63.194 523.267,63.362 523.539 C 63.530 523.811,63.841 525.421,64.052 527.117 C 65.249 536.725,65.849 540.908,66.243 542.400 C 66.388 542.950,66.668 544.750,66.865 546.400 C 67.061 548.050,67.385 550.570,67.585 552.000 C 67.784 553.430,68.110 556.055,68.308 557.833 C 68.507 559.611,68.785 561.252,68.927 561.481 C 69.068 561.710,69.383 563.405,69.627 565.249 C 69.871 567.092,70.239 569.860,70.445 571.400 C 70.650 572.940,70.963 575.460,71.140 577.000 C 71.317 578.540,71.580 580.070,71.726 580.400 C 71.871 580.730,72.188 582.530,72.430 584.400 C 72.672 586.270,73.039 589.060,73.245 590.600 C 73.450 592.140,73.785 594.660,73.987 596.200 C 74.190 597.740,74.639 600.620,74.986 602.600 C 75.585 606.024,76.025 609.120,76.805 615.400 C 76.996 616.940,77.445 619.910,77.803 622.000 C 78.162 624.090,78.627 627.150,78.838 628.800 C 79.467 633.712,79.919 636.783,80.605 640.800 C 80.962 642.890,81.428 645.950,81.640 647.600 C 81.853 649.250,82.203 651.950,82.420 653.600 C 82.636 655.250,82.946 657.860,83.109 659.400 C 83.271 660.940,83.542 662.414,83.710 662.675 C 83.879 662.937,84.201 664.647,84.427 666.475 C 84.653 668.304,85.001 671.060,85.201 672.600 C 85.400 674.140,85.737 676.787,85.948 678.483 C 86.159 680.179,86.450 681.757,86.594 681.990 C 86.738 682.223,87.037 683.896,87.260 685.707 C 87.482 687.518,87.833 690.260,88.041 691.800 C 88.249 693.340,88.584 695.860,88.786 697.400 C 88.987 698.940,89.445 701.910,89.803 704.000 C 90.435 707.685,90.822 710.460,91.549 716.500 C 91.741 718.095,92.006 719.670,92.138 720.000 C 92.363 720.559,92.758 723.113,93.639 729.700 C 93.837 731.185,94.175 733.615,94.389 735.100 C 94.603 736.585,94.930 739.160,95.117 740.822 C 95.304 742.485,95.587 744.056,95.747 744.314 C 95.906 744.572,96.209 746.092,96.420 747.692 C 96.631 749.291,96.990 751.590,97.218 752.800 C 97.446 754.010,97.790 756.297,97.982 757.883 C 98.175 759.469,98.446 760.950,98.585 761.175 C 98.723 761.400,99.025 762.982,99.254 764.692 C 99.483 766.401,99.832 768.970,100.028 770.400 C 100.224 771.830,100.551 774.260,100.754 775.800 C 100.956 777.340,101.424 780.310,101.792 782.400 C 102.420 785.955,102.709 787.906,103.575 794.400 C 103.765 795.830,104.220 798.800,104.584 801.000 C 104.949 803.200,105.430 806.350,105.652 808.000 C 105.874 809.650,106.204 812.080,106.385 813.400 C 106.566 814.720,106.935 817.510,107.204 819.600 C 107.474 821.690,107.758 823.625,107.835 823.900 C 107.946 824.298,126.668 824.400,199.734 824.400 L 291.493 824.400 291.995 820.900 C 292.271 818.975,292.657 816.140,292.853 814.600 C 293.049 813.060,293.372 810.630,293.571 809.200 C 293.770 807.770,294.121 805.188,294.351 803.463 C 294.581 801.738,294.873 800.000,295.000 799.600 C 295.211 798.934,295.393 797.703,296.416 790.000 C 297.365 782.864,297.585 781.418,297.811 780.833 C 297.946 780.485,298.240 778.850,298.464 777.200 C 298.688 775.550,299.029 773.030,299.221 771.600 C 300.146 764.738,300.383 763.134,300.998 759.600 C 301.361 757.510,301.833 754.900,302.047 753.800 C 302.261 752.700,302.596 750.630,302.793 749.200 C 302.990 747.770,303.442 744.890,303.797 742.800 C 304.542 738.422,304.988 735.315,306.373 724.849 C 306.617 723.005,306.935 721.305,307.080 721.071 C 307.225 720.836,307.496 719.285,307.683 717.622 C 307.870 715.960,308.181 713.430,308.376 712.000 C 308.570 710.570,308.916 708.007,309.145 706.304 C 309.373 704.601,309.748 702.531,309.978 701.704 C 310.208 700.877,310.397 699.291,310.398 698.180 C 310.399 697.069,310.562 695.989,310.759 695.780 C 310.957 695.571,311.223 694.140,311.351 692.600 C 311.630 689.224,312.122 685.551,313.013 680.200 C 313.379 678.000,313.841 674.985,314.039 673.500 C 314.238 672.015,314.563 669.585,314.763 668.100 C 314.963 666.615,315.330 663.870,315.580 662.000 C 315.829 660.130,316.199 658.240,316.401 657.800 C 316.603 657.360,316.858 655.830,316.967 654.400 C 317.076 652.970,317.337 650.540,317.547 649.000 C 317.757 647.460,318.129 644.692,318.373 642.849 C 318.617 641.005,318.935 639.305,319.080 639.071 C 319.225 638.836,319.497 637.285,319.685 635.622 C 319.873 633.960,320.192 631.340,320.394 629.800 C 320.597 628.260,320.947 625.504,321.173 623.675 C 321.399 621.847,321.709 620.147,321.863 619.898 C 322.017 619.648,322.297 618.085,322.485 616.422 C 322.673 614.760,322.994 612.140,323.200 610.600 C 323.406 609.060,323.749 606.450,323.964 604.800 C 324.179 603.150,324.647 600.090,325.005 598.000 C 325.363 595.910,325.809 593.030,325.997 591.600 C 326.645 586.679,327.177 582.990,327.816 579.000 C 328.167 576.800,328.611 573.830,328.801 572.400 C 328.991 570.970,329.338 568.360,329.571 566.600 C 329.804 564.840,330.279 561.780,330.625 559.800 C 331.215 556.429,331.434 554.892,332.338 547.800 C 333.153 541.402,333.636 538.166,333.860 537.600 C 333.990 537.270,334.267 535.560,334.475 533.800 C 335.319 526.655,336.353 519.554,336.659 518.800 C 336.793 518.470,337.064 516.850,337.262 515.200 C 337.460 513.550,337.781 511.030,337.976 509.600 C 338.170 508.170,338.529 505.492,338.773 503.649 C 339.017 501.805,339.311 500.144,339.427 499.957 C 339.542 499.770,339.824 498.218,340.052 496.508 C 341.114 488.547,341.899 483.658,342.250 482.800 C 342.386 482.470,342.661 480.940,342.862 479.400 C 343.939 471.158,344.507 467.309,345.400 462.200 C 346.022 458.643,346.321 456.595,347.178 450.049 C 347.419 448.205,347.718 446.533,347.842 446.332 C 347.966 446.131,348.240 444.579,348.450 442.883 C 348.660 441.187,348.991 438.630,349.186 437.200 C 349.380 435.770,349.723 433.250,349.946 431.600 C 350.170 429.950,350.651 426.800,351.016 424.600 C 351.380 422.400,351.826 419.430,352.005 418.000 C 352.413 414.754,352.978 410.958,353.823 405.800 C 354.184 403.600,354.641 400.585,354.839 399.100 C 355.038 397.615,355.366 395.185,355.570 393.700 C 355.773 392.215,356.137 389.492,356.378 387.649 C 356.619 385.805,356.915 384.137,357.036 383.942 C 357.157 383.746,357.417 382.194,357.615 380.493 C 358.140 375.979,358.664 372.295,359.392 368.000 C 359.747 365.910,360.202 362.940,360.403 361.400 C 361.277 354.729,361.611 352.368,362.218 348.600 C 362.573 346.400,363.022 343.430,363.216 342.000 C 363.732 338.197,364.248 334.738,365.003 330.000 C 365.372 327.690,365.831 324.630,366.024 323.200 C 366.218 321.770,366.557 319.250,366.780 317.600 C 367.002 315.950,367.459 312.890,367.796 310.800 C 368.133 308.710,368.586 305.664,368.803 304.030 C 369.020 302.397,369.564 298.707,370.012 295.830 C 371.165 288.416,371.482 286.294,372.613 278.400 C 373.825 269.953,374.692 264.159,375.189 261.200 C 375.393 259.990,375.751 257.650,375.987 256.000 C 376.222 254.350,376.603 251.830,376.833 250.400 C 377.063 248.970,377.420 246.585,377.626 245.100 C 377.832 243.615,378.173 241.185,378.384 239.700 C 378.596 238.215,378.961 235.560,379.195 233.800 C 379.429 232.040,379.719 230.330,379.839 230.000 C 379.959 229.670,380.238 228.050,380.459 226.400 C 380.681 224.750,381.004 222.410,381.178 221.200 C 381.351 219.990,381.720 217.290,381.997 215.200 L 382.500 211.400 380.050 206.292 C 378.703 203.483,377.600 201.122,377.600 201.045 C 377.600 200.968,376.543 198.677,375.252 195.953 C 373.960 193.229,371.324 187.580,369.394 183.400 C 367.464 179.220,365.260 174.450,364.496 172.800 C 363.733 171.150,362.303 168.000,361.318 165.800 C 360.333 163.600,358.938 160.540,358.218 159.000 C 357.497 157.460,356.592 155.480,356.205 154.600 C 355.819 153.720,354.714 151.328,353.751 149.285 C 352.788 147.242,352.000 145.492,352.000 145.396 C 352.000 145.301,351.190 143.512,350.200 141.421 C 349.210 139.331,348.400 137.538,348.400 137.438 C 348.400 137.338,347.877 136.118,347.239 134.728 C 346.600 133.338,345.792 131.570,345.443 130.800 C 345.094 130.030,344.189 128.320,343.431 127.000 C 341.624 123.851,337.838 116.107,335.805 111.400 C 335.425 110.520,334.485 108.450,333.716 106.800 C 332.947 105.150,332.170 103.440,331.989 103.000 C 331.809 102.560,331.001 100.760,330.194 99.000 C 329.388 97.240,328.278 94.810,327.728 93.600 C 327.179 92.390,326.565 91.087,326.364 90.705 C 326.164 90.323,326.000 89.753,326.000 89.439 C 326.000 89.124,325.865 88.807,325.700 88.733 C 325.535 88.660,325.104 87.970,324.742 87.200 C 323.642 84.862,321.744 80.695,321.006 79.000 C 320.623 78.120,319.717 76.140,318.994 74.600 C 318.270 73.060,317.367 71.080,316.987 70.200 C 316.607 69.320,315.443 66.800,314.400 64.600 C 312.575 60.749,311.575 58.526,310.713 56.400 C 310.490 55.850,310.155 55.130,309.970 54.800 C 309.417 53.818,307.777 50.415,306.209 47.000 C 305.402 45.240,304.304 42.928,303.770 41.863 C 303.237 40.798,302.800 39.673,302.800 39.363 C 302.800 39.053,302.620 38.800,302.400 38.800 C 302.180 38.800,302.000 38.610,302.000 38.378 C 302.000 38.147,301.120 36.122,300.044 33.878 C 296.567 26.626,293.450 19.885,292.194 16.900 L 291.479 15.200 199.734 15.200 L 107.989 15.200 106.958 17.500 M36.493 398.000 C 36.493 398.770,36.575 399.085,36.676 398.700 C 36.776 398.315,36.776 397.685,36.676 397.300 C 36.575 396.915,36.493 397.230,36.493 398.000"
    stroke="none" fill="#202020" fill-rule="evenoff">
    </path>

    <path id="path2" d="M107.738 14.706 C 107.484 14.868,148.757 14.954,199.457 14.897 L 291.637 14.795 292.410 16.497 C 292.835 17.434,293.186 17.930,293.190 17.600 C 293.194 17.270,292.840 16.415,292.404 15.700 L 291.612 14.400 199.906 14.406 C 149.468 14.409,107.992 14.544,107.738 14.706 M106.500 16.693 C 105.788 18.211,105.884 18.833,106.613 17.433 C 106.948 16.791,107.172 16.122,107.111 15.946 C 107.050 15.770,106.775 16.106,106.500 16.693 M295.302 23.100 C 296.199 25.136,296.795 26.203,296.798 25.775 C 296.801 25.252,295.251 22.000,294.999 22.000 C 294.899 22.000,295.035 22.495,295.302 23.100 M297.628 27.800 C 297.628 28.020,297.886 28.650,298.200 29.200 C 298.514 29.750,298.772 30.020,298.772 29.800 C 298.772 29.580,298.514 28.950,298.200 28.400 C 297.886 27.850,297.628 27.580,297.628 27.800 M100.451 29.780 C 99.277 32.279,99.416 32.656,100.618 30.231 C 101.155 29.148,101.529 28.196,101.449 28.115 C 101.368 28.035,100.919 28.784,100.451 29.780 M301.228 35.400 C 301.228 35.620,301.486 36.250,301.800 36.800 C 302.114 37.350,302.372 37.620,302.372 37.400 C 302.372 37.180,302.114 36.550,301.800 36.000 C 301.486 35.450,301.228 35.180,301.228 35.400 M97.285 36.413 C 97.018 36.840,96.807 37.417,96.816 37.695 C 96.825 37.973,97.109 37.689,97.447 37.065 C 98.150 35.768,98.018 35.238,97.285 36.413 M95.580 40.039 C 95.120 40.940,94.813 41.746,94.897 41.830 C 94.981 41.914,95.441 41.176,95.919 40.191 C 97.009 37.947,96.715 37.815,95.580 40.039 M92.009 47.675 C 91.564 48.596,91.200 49.447,91.200 49.564 C 91.200 49.916,92.201 48.282,92.710 47.100 C 93.455 45.367,92.907 45.817,92.009 47.675 M306.836 47.400 C 306.836 47.620,307.270 48.610,307.800 49.600 C 308.330 50.590,308.764 51.220,308.764 51.000 C 308.764 50.780,308.330 49.790,307.800 48.800 C 307.270 47.810,306.836 47.180,306.836 47.400 M89.270 53.531 C 88.791 54.590,88.406 55.623,88.414 55.828 C 88.422 56.033,88.880 55.233,89.432 54.052 C 89.985 52.870,90.370 51.836,90.288 51.755 C 90.207 51.673,89.748 52.473,89.270 53.531 M309.424 52.900 C 309.746 53.615,310.300 54.882,310.655 55.717 C 311.010 56.551,311.376 57.158,311.468 57.065 C 311.661 56.872,309.304 51.600,309.024 51.600 C 308.922 51.600,309.102 52.185,309.424 52.900 M312.436 59.400 C 312.436 59.620,312.870 60.610,313.400 61.600 C 313.930 62.590,314.364 63.220,314.364 63.000 C 314.364 62.780,313.930 61.790,313.400 60.800 C 312.870 59.810,312.436 59.180,312.436 59.400 M86.085 60.413 C 85.818 60.840,85.601 61.417,85.602 61.695 C 85.604 61.973,85.877 61.678,86.210 61.040 C 86.903 59.711,86.811 59.250,86.085 60.413 M83.265 66.617 C 82.595 68.088,82.723 68.402,83.447 67.065 C 83.786 66.440,83.988 65.854,83.896 65.763 C 83.805 65.671,83.521 66.056,83.265 66.617 M316.002 67.025 C 315.999 67.611,317.953 71.506,317.979 70.968 C 317.991 70.730,317.551 69.650,317.002 68.568 C 316.453 67.486,316.003 66.791,316.002 67.025 M80.086 73.486 C 78.969 75.912,79.197 76.139,80.400 73.800 C 80.911 72.807,81.243 71.909,81.138 71.804 C 81.033 71.699,80.559 72.456,80.086 73.486 M318.490 72.700 C 318.999 73.882,320.000 75.516,320.000 75.164 C 320.000 74.789,318.389 71.600,318.199 71.600 C 318.099 71.600,318.230 72.095,318.490 72.700 M77.228 79.636 C 76.773 80.579,76.409 81.541,76.421 81.775 C 76.433 82.009,76.881 81.314,77.418 80.231 C 77.955 79.148,78.319 78.185,78.225 78.092 C 78.132 77.999,77.683 78.694,77.228 79.636 M321.602 79.054 C 321.601 79.304,321.869 80.024,322.198 80.654 C 322.526 81.284,322.796 81.596,322.798 81.346 C 322.799 81.096,322.531 80.376,322.202 79.746 C 321.874 79.116,321.604 78.804,321.602 79.054 M74.472 85.643 C 73.992 86.541,73.609 87.484,73.621 87.738 C 73.633 87.992,74.081 87.314,74.618 86.231 C 75.806 83.835,75.688 83.363,74.472 85.643 M324.418 85.500 C 324.445 85.944,326.361 89.452,326.382 89.096 C 326.405 88.705,324.762 85.200,324.556 85.200 C 324.470 85.200,324.408 85.335,324.418 85.500 M327.228 91.296 C 327.183 91.769,329.698 97.236,329.877 97.056 C 329.966 96.967,329.413 95.568,328.648 93.947 C 327.882 92.326,327.244 91.133,327.228 91.296 M70.886 93.486 C 70.412 94.515,70.099 95.432,70.190 95.523 C 70.280 95.614,70.748 94.851,71.229 93.829 C 71.709 92.806,72.023 91.889,71.925 91.791 C 71.827 91.694,71.359 92.456,70.886 93.486 M68.027 99.627 C 67.524 100.738,67.192 101.725,67.287 101.820 C 67.382 101.916,67.871 101.084,68.373 99.973 C 68.876 98.862,69.208 97.875,69.113 97.780 C 69.018 97.684,68.529 98.516,68.027 99.627 M330.000 97.725 C 330.000 98.111,331.961 101.728,331.979 101.375 C 332.004 100.861,330.460 97.600,330.191 97.600 C 330.086 97.600,330.000 97.656,330.000 97.725 M65.618 104.961 C 63.972 108.554,64.104 108.874,65.808 105.423 C 66.563 103.896,67.102 102.569,67.008 102.474 C 66.913 102.380,66.288 103.499,65.618 104.961 M332.818 103.900 C 332.842 104.304,334.759 107.867,334.782 107.551 C 334.810 107.164,333.185 103.600,332.981 103.600 C 332.882 103.600,332.808 103.735,332.818 103.900 M62.415 111.815 C 61.517 113.741,60.872 115.405,60.980 115.514 C 61.089 115.622,61.342 115.281,61.542 114.755 C 61.743 114.230,62.467 112.644,63.152 111.232 C 63.837 109.820,64.319 108.585,64.223 108.489 C 64.127 108.393,63.313 109.890,62.415 111.815 M335.620 109.862 C 335.609 110.116,335.955 111.016,336.388 111.862 C 336.822 112.708,338.085 115.380,339.196 117.800 C 340.306 120.220,341.491 122.650,341.829 123.200 C 342.167 123.750,342.714 124.804,343.045 125.543 C 343.376 126.282,343.724 126.810,343.817 126.716 C 343.911 126.622,342.756 124.038,341.250 120.973 C 339.744 117.908,337.866 114.050,337.076 112.400 C 336.287 110.750,335.631 109.608,335.620 109.862 M58.217 120.617 C 56.077 125.019,55.219 127.502,57.091 123.879 C 58.982 120.218,60.792 116.259,60.643 116.110 C 60.556 116.023,59.465 118.051,58.217 120.617 M54.222 128.534 C 53.424 129.961,52.080 132.719,51.235 134.664 C 49.595 138.440,42.635 153.749,39.745 159.937 C 38.785 161.992,38.000 163.742,38.000 163.826 C 38.000 163.909,37.172 165.738,36.160 167.889 C 35.147 170.040,34.080 172.340,33.789 173.000 C 33.497 173.660,32.435 175.975,31.429 178.145 C 30.423 180.315,29.600 182.200,29.600 182.334 C 29.600 182.852,30.696 180.878,31.896 178.200 C 32.585 176.660,34.803 171.800,36.823 167.400 C 38.844 163.000,40.945 158.410,41.492 157.200 C 42.040 155.990,43.889 151.940,45.601 148.200 C 47.313 144.460,49.470 139.690,50.395 137.600 C 53.514 130.549,54.379 128.753,55.235 127.551 C 55.704 126.893,55.994 126.261,55.880 126.147 C 55.766 126.033,55.020 127.107,54.222 128.534 M344.013 127.451 C 344.006 127.699,344.249 128.109,344.553 128.361 C 344.857 128.614,345.961 130.751,347.006 133.110 C 348.607 136.725,351.780 143.720,360.383 162.600 C 364.662 171.990,366.559 175.974,366.691 175.842 C 366.774 175.760,366.183 174.277,365.379 172.546 C 361.704 164.637,359.600 160.010,359.600 159.833 C 359.600 159.754,358.724 157.825,357.653 155.545 C 355.166 150.251,350.669 140.369,347.931 134.185 C 345.938 129.681,344.042 126.423,344.013 127.451 M366.800 176.539 C 366.800 176.642,367.629 178.498,368.643 180.663 C 370.869 185.416,372.737 189.474,374.001 192.297 C 374.517 193.450,375.021 194.312,375.121 194.212 C 375.221 194.112,374.895 193.169,374.397 192.115 C 373.899 191.062,372.952 189.030,372.293 187.600 C 371.634 186.170,370.308 183.330,369.347 181.289 C 368.386 179.248,367.600 177.413,367.600 177.212 C 367.600 177.012,367.420 176.736,367.200 176.600 C 366.980 176.464,366.800 176.437,366.800 176.539 M28.070 185.511 C 27.371 187.000,26.804 188.393,26.810 188.609 C 26.815 188.824,27.450 187.670,28.221 186.045 C 28.992 184.419,29.559 183.025,29.481 182.947 C 29.403 182.870,28.768 184.023,28.070 185.511 M24.854 192.500 C 22.050 198.458,21.163 200.497,21.313 200.646 C 21.394 200.727,21.884 199.850,22.402 198.697 C 23.496 196.260,26.437 189.940,26.681 189.500 C 26.772 189.335,26.748 189.200,26.627 189.200 C 26.507 189.200,25.709 190.685,24.854 192.500 M376.000 196.525 C 376.000 196.808,377.960 200.579,377.979 200.333 C 378.014 199.894,376.446 196.400,376.214 196.400 C 376.096 196.400,376.000 196.456,376.000 196.525 M378.828 202.600 C 378.828 202.820,379.086 203.450,379.400 204.000 C 379.714 204.550,379.972 204.820,379.972 204.600 C 379.972 204.380,379.714 203.750,379.400 203.200 C 379.086 202.650,378.828 202.380,378.828 202.600 M19.251 204.580 C 18.075 207.083,18.215 207.428,19.446 205.061 C 20.001 203.994,20.376 203.042,20.279 202.945 C 20.182 202.849,19.719 203.584,19.251 204.580 M381.628 208.600 C 381.628 208.820,381.886 209.450,382.200 210.000 C 382.514 210.550,382.772 210.820,382.772 210.600 C 382.772 210.380,382.514 209.750,382.200 209.200 C 381.886 208.650,381.628 208.380,381.628 208.600 M16.865 209.817 C 16.609 210.378,16.408 211.144,16.418 211.519 C 16.427 211.893,16.689 211.487,17.000 210.615 C 17.645 208.804,17.559 208.294,16.865 209.817 M382.893 212.400 C 382.893 213.170,382.975 213.485,383.076 213.100 C 383.176 212.715,383.176 212.085,383.076 211.700 C 382.975 211.315,382.893 211.630,382.893 212.400 M16.514 214.200 C 16.517 215.300,16.595 215.703,16.687 215.095 C 16.779 214.486,16.777 213.586,16.682 213.095 C 16.587 212.603,16.511 213.100,16.514 214.200 M382.509 215.600 C 382.509 216.590,382.587 216.995,382.682 216.500 C 382.778 216.005,382.778 215.195,382.682 214.700 C 382.587 214.205,382.509 214.610,382.509 215.600 M17.072 218.200 C 17.199 219.300,17.369 220.275,17.451 220.367 C 17.732 220.682,17.520 218.199,17.180 217.200 C 16.951 216.526,16.916 216.851,17.072 218.200 M381.818 219.418 C 381.665 220.439,381.622 221.355,381.722 221.455 C 381.822 221.555,382.029 220.802,382.182 219.782 C 382.335 218.761,382.378 217.845,382.278 217.745 C 382.178 217.645,381.971 218.398,381.818 219.418 M17.680 222.800 C 17.680 223.350,17.824 224.250,18.000 224.800 L 18.320 225.800 18.320 224.800 C 18.320 224.250,18.176 223.350,18.000 222.800 L 17.680 221.800 17.680 222.800 M381.054 224.754 C 380.900 225.718,380.858 226.591,380.961 226.694 C 381.230 226.963,381.715 224.145,381.507 223.522 C 381.412 223.236,381.208 223.790,381.054 224.754 M18.428 228.233 C 18.444 229.095,18.617 230.160,18.814 230.600 C 19.048 231.122,19.088 230.637,18.932 229.200 C 18.643 226.558,18.389 226.070,18.428 228.233 M380.233 229.900 C 380.084 230.945,379.893 232.790,379.809 234.000 L 379.655 236.200 380.003 234.200 C 380.596 230.791,380.911 228.000,380.703 228.000 C 380.594 228.000,380.382 228.855,380.233 229.900 M19.411 233.800 C 19.495 235.120,19.746 236.920,19.970 237.800 C 20.430 239.615,20.255 237.657,19.576 233.400 L 19.258 231.400 19.411 233.800 M378.982 238.182 C 378.829 239.202,378.794 240.127,378.904 240.237 C 379.014 240.347,379.229 239.602,379.382 238.582 C 379.535 237.561,379.570 236.637,379.460 236.527 C 379.350 236.417,379.135 237.161,378.982 238.182 M20.480 241.600 C 20.480 242.150,20.624 243.050,20.800 243.600 L 21.120 244.600 21.120 243.600 C 21.120 243.050,20.976 242.150,20.800 241.600 L 20.480 240.600 20.480 241.600 M378.254 243.554 C 378.100 244.518,378.058 245.391,378.161 245.494 C 378.430 245.763,378.915 242.945,378.707 242.322 C 378.612 242.036,378.408 242.590,378.254 243.554 M21.228 246.833 C 21.244 247.805,21.414 248.960,21.608 249.400 C 21.831 249.908,21.874 249.324,21.724 247.800 C 21.440 244.899,21.190 244.412,21.228 246.833 M377.670 247.450 C 377.631 248.138,377.505 249.308,377.389 250.050 C 377.196 251.286,377.215 251.317,377.608 250.414 C 377.844 249.872,377.971 248.702,377.889 247.814 C 377.768 246.502,377.727 246.433,377.670 247.450 M22.228 252.800 C 22.325 254.230,22.576 256.210,22.786 257.200 C 23.137 258.861,23.148 258.815,22.926 256.600 C 22.497 252.307,22.015 249.685,22.228 252.800 M376.914 253.400 C 376.917 254.500,376.995 254.903,377.087 254.295 C 377.179 253.686,377.177 252.786,377.082 252.295 C 376.987 251.803,376.911 252.300,376.914 253.400 M376.182 257.382 C 376.029 258.402,375.994 259.327,376.104 259.437 C 376.214 259.547,376.429 258.802,376.582 257.782 C 376.735 256.761,376.770 255.837,376.660 255.727 C 376.550 255.617,376.335 256.361,376.182 257.382 M23.287 260.600 C 23.283 261.260,23.424 262.250,23.600 262.800 L 23.920 263.800 23.913 262.800 C 23.909 262.250,23.768 261.260,23.600 260.600 L 23.295 259.400 23.287 260.600 M375.454 262.754 C 375.300 263.718,375.258 264.591,375.361 264.694 C 375.630 264.963,376.115 262.145,375.907 261.522 C 375.812 261.236,375.608 261.790,375.454 262.754 M24.028 266.033 C 24.044 267.005,24.221 268.160,24.421 268.600 C 24.662 269.128,24.704 268.584,24.543 267.000 C 24.249 264.099,23.990 263.612,24.028 266.033 M374.704 267.200 C 374.559 268.410,374.259 270.660,374.037 272.200 C 373.309 277.249,373.221 278.659,373.837 275.400 C 374.932 269.611,375.288 267.014,375.127 266.000 C 375.027 265.371,374.870 265.817,374.704 267.200 M25.008 271.800 C 25.093 273.120,25.346 274.920,25.568 275.800 C 25.942 277.281,25.954 277.236,25.726 275.200 C 25.266 271.084,24.826 269.002,25.008 271.800 M26.087 279.400 C 26.083 280.060,26.224 281.050,26.400 281.600 L 26.720 282.600 26.713 281.600 C 26.709 281.050,26.568 280.060,26.400 279.400 L 26.095 278.200 26.087 279.400 M372.646 281.547 C 372.489 282.727,372.446 283.779,372.550 283.883 C 372.817 284.150,373.322 280.564,373.107 279.925 C 373.011 279.636,372.803 280.366,372.646 281.547 M27.000 285.000 C 27.153 287.437,27.809 292.332,28.422 295.600 C 29.238 299.958,28.383 292.444,27.192 284.800 L 26.850 282.600 27.000 285.000 M371.890 286.400 C 371.733 287.610,371.430 289.860,371.218 291.400 C 370.497 296.642,370.431 297.806,371.037 294.600 C 372.129 288.828,372.489 286.215,372.331 285.200 C 372.233 284.564,372.072 285.002,371.890 286.400 M28.895 298.600 C 28.895 299.260,29.032 300.340,29.200 301.000 L 29.505 302.200 29.505 301.000 C 29.505 300.340,29.368 299.260,29.200 298.600 L 28.895 297.400 28.895 298.600 M369.676 302.000 C 368.865 307.286,368.739 308.738,369.173 307.800 C 369.377 307.360,369.556 306.315,369.572 305.477 C 369.587 304.640,369.796 303.178,370.035 302.228 C 370.274 301.279,370.408 300.075,370.334 299.551 C 370.259 299.028,369.963 300.130,369.676 302.000 M29.799 304.400 C 29.954 306.680,30.567 310.876,31.202 314.000 L 31.567 315.800 31.386 313.800 C 31.194 311.668,30.517 306.962,29.977 304.000 C 29.652 302.214,29.650 302.217,29.799 304.400 M368.319 311.000 C 368.165 312.320,367.943 314.120,367.825 315.000 C 367.708 315.880,367.886 315.430,368.219 314.000 C 368.553 312.570,368.775 310.770,368.713 310.000 C 368.625 308.916,368.536 309.141,368.319 311.000 M31.789 317.800 C 31.887 318.900,32.149 321.060,32.371 322.600 C 32.594 324.140,32.955 326.750,33.175 328.400 C 33.394 330.050,33.864 333.200,34.218 335.400 C 34.573 337.600,35.022 340.570,35.216 342.000 C 35.692 345.508,36.217 349.011,36.984 353.800 C 37.336 356.000,37.798 359.150,38.010 360.800 C 38.610 365.468,39.126 369.053,39.821 373.400 C 40.173 375.600,40.624 378.660,40.823 380.200 C 41.022 381.740,41.358 384.080,41.568 385.400 C 41.778 386.720,42.237 389.600,42.587 391.800 C 42.938 394.000,43.398 397.150,43.611 398.800 C 44.143 402.928,44.631 406.297,45.381 411.000 C 45.731 413.200,46.190 416.260,46.400 417.800 C 46.610 419.340,47.069 422.400,47.419 424.600 C 48.034 428.460,48.211 429.652,49.202 436.600 C 50.126 443.076,50.295 443.935,50.350 442.424 C 50.378 441.667,50.225 440.047,50.012 438.824 C 49.799 437.601,49.444 435.340,49.224 433.800 C 48.494 428.689,47.598 422.631,47.211 420.200 C 47.001 418.880,46.654 416.540,46.438 415.000 C 46.223 413.460,45.778 410.490,45.449 408.400 C 45.120 406.310,44.666 403.250,44.440 401.600 C 44.214 399.950,43.922 397.880,43.790 397.000 C 43.659 396.120,43.389 394.230,43.192 392.800 C 42.994 391.370,42.547 388.400,42.198 386.200 C 41.386 381.071,40.958 378.175,40.426 374.200 C 40.190 372.440,39.828 370.010,39.620 368.800 C 39.412 367.590,39.040 365.160,38.793 363.400 C 37.939 357.304,37.545 354.582,36.969 350.800 C 36.104 345.119,35.673 342.242,34.991 337.600 C 34.651 335.290,34.208 332.320,34.006 331.000 C 33.803 329.680,33.425 327.070,33.164 325.200 C 32.462 320.154,31.573 315.370,31.789 317.800 M366.865 320.800 C 366.570 322.890,366.173 325.590,365.981 326.800 C 365.143 332.092,364.711 335.644,364.884 335.817 C 364.987 335.920,365.286 334.428,365.549 332.502 C 365.812 330.576,366.201 328.232,366.413 327.294 C 366.626 326.356,366.800 324.951,366.800 324.171 C 366.800 323.392,366.995 321.982,367.232 321.037 C 367.470 320.093,367.605 318.798,367.532 318.160 C 367.460 317.522,367.159 318.710,366.865 320.800 M364.446 337.323 C 364.421 337.940,364.235 339.200,364.034 340.123 C 363.833 341.045,363.463 343.330,363.212 345.200 C 362.961 347.070,362.488 350.400,362.160 352.600 C 361.546 356.734,361.030 360.307,360.399 364.800 C 359.892 368.415,358.848 375.330,358.376 378.200 C 357.976 380.631,356.609 389.804,355.991 394.200 C 355.009 401.186,354.755 402.934,354.187 406.600 C 353.847 408.800,353.402 411.770,353.200 413.200 C 352.438 418.574,352.068 421.080,351.634 423.800 C 351.202 426.500,350.837 428.959,350.012 434.700 C 349.227 440.167,348.383 445.864,348.011 448.200 C 347.801 449.520,347.432 451.950,347.189 453.600 C 346.947 455.250,346.560 457.680,346.329 459.000 C 345.929 461.284,345.567 463.621,344.780 469.000 C 344.587 470.320,344.340 472.480,344.232 473.800 L 344.035 476.200 344.383 474.200 C 344.575 473.100,344.912 471.030,345.132 469.600 C 345.352 468.170,346.017 464.030,346.609 460.400 C 347.201 456.770,347.825 452.720,347.995 451.400 C 348.164 450.080,348.684 446.480,349.150 443.400 C 349.615 440.320,350.188 436.450,350.423 434.800 C 350.658 433.150,351.093 430.270,351.389 428.400 C 351.685 426.530,352.135 423.560,352.388 421.800 C 353.043 417.241,353.477 414.342,354.153 410.000 C 354.479 407.910,354.950 404.760,355.200 403.000 C 355.451 401.240,355.835 398.540,356.054 397.000 C 356.273 395.460,356.713 392.490,357.031 390.400 C 358.019 383.911,359.056 376.961,359.388 374.600 C 359.512 373.720,359.784 371.920,359.992 370.600 C 360.422 367.871,360.972 364.059,361.608 359.400 C 361.848 357.640,362.307 354.490,362.627 352.400 C 362.948 350.310,363.388 347.385,363.605 345.900 C 363.822 344.415,364.201 341.981,364.447 340.491 C 364.693 339.002,364.804 337.427,364.693 336.991 C 364.544 336.402,364.481 336.487,364.446 337.323 M50.441 444.633 C 50.418 445.092,50.569 446.442,50.776 447.633 C 50.983 448.825,51.343 451.060,51.577 452.600 C 51.811 454.140,52.453 458.280,53.003 461.800 C 53.553 465.320,54.199 469.460,54.438 471.000 C 55.042 474.891,55.192 475.363,55.007 472.800 C 54.839 470.453,54.461 467.803,53.383 461.400 C 52.726 457.498,52.563 456.410,51.644 449.800 C 51.128 446.086,50.502 443.396,50.441 444.633 M55.263 475.800 C 55.254 476.240,55.395 477.320,55.577 478.200 L 55.908 479.800 55.914 478.400 C 55.917 477.630,55.776 476.550,55.600 476.000 C 55.341 475.191,55.277 475.153,55.263 475.800 M343.593 476.633 C 343.586 476.957,343.090 480.040,341.988 486.600 C 341.803 487.700,341.554 489.500,341.435 490.600 C 341.142 493.300,341.828 490.929,342.360 487.400 C 342.560 486.080,343.020 483.136,343.385 480.857 C 343.749 478.578,343.946 476.613,343.823 476.490 C 343.701 476.367,343.597 476.432,343.593 476.633 M56.039 481.069 C 56.018 481.548,56.169 482.808,56.376 483.869 C 56.582 484.931,56.933 486.970,57.155 488.400 C 58.057 494.205,58.540 496.572,58.716 496.047 C 58.819 495.742,58.709 494.572,58.473 493.447 C 58.237 492.321,57.843 490.050,57.598 488.400 C 56.972 484.200,56.086 480.031,56.039 481.069 M340.456 496.000 C 340.201 497.650,339.817 500.170,339.604 501.600 C 339.390 503.030,339.119 504.830,339.001 505.600 C 338.882 506.370,338.702 507.900,338.600 509.000 C 338.351 511.701,339.320 506.733,339.967 502.000 C 340.222 500.130,340.625 497.583,340.862 496.339 C 341.099 495.096,341.209 493.836,341.106 493.539 C 341.003 493.243,340.711 494.350,340.456 496.000 M59.023 499.200 C 59.261 501.263,59.941 506.068,60.410 509.000 L 60.730 511.000 60.606 508.800 C 60.448 505.985,59.691 500.609,59.198 498.800 C 58.836 497.474,58.827 497.495,59.023 499.200 M60.880 512.000 C 60.880 512.550,61.024 513.450,61.200 514.000 L 61.520 515.000 61.520 514.000 C 61.520 513.450,61.376 512.550,61.200 512.000 L 60.880 511.000 60.880 512.000 M337.800 513.600 C 337.646 514.510,337.611 515.344,337.721 515.454 C 337.831 515.564,338.046 514.910,338.200 514.000 C 338.354 513.090,338.389 512.256,338.279 512.146 C 338.169 512.036,337.954 512.690,337.800 513.600 M61.827 518.000 C 62.022 519.721,62.548 523.504,63.189 527.800 C 63.481 529.754,63.489 529.764,63.544 528.224 C 63.600 526.653,63.340 524.890,62.216 519.200 C 61.890 517.550,61.715 517.010,61.827 518.000 M336.894 519.373 C 336.622 520.806,336.400 522.587,336.400 523.330 C 336.400 524.073,336.206 525.237,335.969 525.917 C 335.732 526.597,335.605 527.568,335.687 528.076 C 335.824 528.926,336.016 527.991,337.271 520.359 C 337.846 516.866,337.528 516.033,336.894 519.373 M63.656 530.800 C 63.656 531.350,63.811 532.160,64.000 532.600 C 64.313 533.329,64.344 533.312,64.344 532.400 C 64.344 531.850,64.189 531.040,64.000 530.600 C 63.687 529.871,63.656 529.888,63.656 530.800 M335.018 532.218 C 334.865 533.239,334.830 534.163,334.940 534.273 C 335.050 534.383,335.265 533.639,335.418 532.618 C 335.571 531.598,335.606 530.673,335.496 530.563 C 335.386 530.453,335.171 531.198,335.018 532.218 M64.609 536.600 C 64.868 538.868,65.622 544.241,66.012 546.600 L 66.342 548.600 66.196 546.200 C 66.008 543.133,65.313 538.205,64.814 536.400 L 64.426 535.000 64.609 536.600 M334.255 537.400 C 334.073 538.720,333.767 540.880,333.576 542.200 C 333.136 545.243,332.745 549.526,332.956 549.000 C 333.044 548.780,333.325 546.980,333.579 545.000 C 333.834 543.020,334.230 540.500,334.459 539.400 C 334.688 538.300,334.811 536.860,334.731 536.200 C 334.625 535.320,334.498 535.640,334.255 537.400 M66.468 549.600 C 66.462 550.150,66.611 550.960,66.800 551.400 L 67.144 552.200 67.132 551.400 C 67.126 550.960,66.976 550.150,66.800 549.600 L 66.480 548.600 66.468 549.600 M332.222 551.422 C 332.072 552.225,332.038 552.972,332.148 553.082 C 332.258 553.192,332.472 552.625,332.622 551.822 C 332.773 551.019,332.806 550.273,332.696 550.163 C 332.586 550.053,332.373 550.619,332.222 551.422 M67.268 555.400 C 67.262 556.060,67.411 556.960,67.600 557.400 C 68.070 558.494,68.070 556.667,67.600 555.200 C 67.288 554.225,67.279 554.230,67.268 555.400 M331.304 558.200 C 330.090 565.155,329.767 568.296,330.585 565.200 C 330.905 563.990,331.174 562.262,331.183 561.360 C 331.192 560.458,331.394 559.163,331.631 558.483 C 331.868 557.803,332.001 556.832,331.927 556.324 C 331.854 555.816,331.573 556.660,331.304 558.200 M68.238 560.800 C 68.341 562.230,68.588 564.390,68.788 565.600 L 69.150 567.800 68.962 565.200 C 68.859 563.770,68.612 561.610,68.412 560.400 L 68.050 558.200 68.238 560.800 M69.234 568.800 C 69.222 569.350,69.387 570.070,69.600 570.400 C 70.109 571.187,70.109 569.784,69.600 568.600 C 69.285 567.867,69.254 567.884,69.234 568.800 M329.422 570.222 C 329.272 571.025,329.238 571.772,329.348 571.882 C 329.458 571.992,329.672 571.425,329.822 570.622 C 329.973 569.819,330.006 569.073,329.896 568.963 C 329.786 568.853,329.573 569.419,329.422 570.222 M70.068 574.400 C 70.062 574.950,70.211 575.760,70.400 576.200 L 70.744 577.000 70.732 576.200 C 70.726 575.760,70.576 574.950,70.400 574.400 L 70.080 573.400 70.068 574.400 M328.470 577.098 C 327.841 580.802,327.615 582.592,327.420 585.400 C 327.246 587.912,327.335 587.558,327.998 583.100 C 328.219 581.615,328.609 579.139,328.865 577.598 C 329.120 576.057,329.239 574.706,329.129 574.596 C 329.019 574.486,328.723 575.612,328.470 577.098 M71.007 579.400 C 71.214 582.844,71.932 588.000,72.399 589.400 C 72.768 590.502,72.782 590.469,72.573 589.000 C 72.448 588.120,72.164 586.050,71.943 584.400 C 71.721 582.750,71.387 580.410,71.201 579.200 L 70.863 577.000 71.007 579.400 M326.622 589.422 C 326.472 590.225,326.438 590.972,326.548 591.082 C 326.658 591.192,326.872 590.625,327.022 589.822 C 327.173 589.019,327.206 588.273,327.096 588.163 C 326.986 588.053,326.773 588.619,326.622 589.422 M72.868 593.600 C 72.862 594.150,73.011 594.960,73.200 595.400 L 73.544 596.200 73.532 595.400 C 73.526 594.960,73.376 594.150,73.200 593.600 L 72.880 592.600 72.868 593.600 M325.822 595.422 C 325.672 596.225,325.638 596.972,325.748 597.082 C 325.858 597.192,326.072 596.625,326.222 595.822 C 326.373 595.019,326.406 594.273,326.296 594.163 C 326.186 594.053,325.973 594.619,325.822 595.422 M73.806 599.000 C 74.115 602.889,74.801 607.531,75.204 608.459 C 75.557 609.274,75.584 609.212,75.405 608.000 C 75.292 607.230,75.000 605.250,74.757 603.600 C 74.514 601.950,74.165 599.790,73.981 598.800 L 73.647 597.000 73.806 599.000 M325.050 599.800 C 324.912 601.010,324.721 603.035,324.625 604.300 L 324.449 606.600 324.817 604.600 C 325.338 601.759,325.747 597.600,325.504 597.600 C 325.391 597.600,325.187 598.590,325.050 599.800 M323.822 608.329 C 323.658 609.059,323.622 609.756,323.742 609.876 C 324.043 610.177,324.520 608.156,324.299 607.517 C 324.201 607.233,323.986 607.598,323.822 608.329 M75.668 612.400 C 75.662 612.950,75.811 613.760,76.000 614.200 L 76.344 615.000 76.332 614.200 C 76.326 613.760,76.176 612.950,76.000 612.400 L 75.680 611.400 75.668 612.400 M322.825 615.700 C 322.578 617.295,322.202 619.601,321.988 620.824 C 321.775 622.047,321.625 623.757,321.656 624.624 C 321.721 626.421,321.879 625.594,322.733 619.000 C 322.961 617.240,323.273 615.125,323.426 614.300 C 323.579 613.475,323.607 612.800,323.489 612.800 C 323.370 612.800,323.071 614.105,322.825 615.700 M76.631 617.800 C 76.727 619.120,76.972 621.280,77.175 622.600 L 77.545 625.000 77.360 622.400 C 77.258 620.970,77.013 618.810,76.816 617.600 L 76.458 615.400 76.631 617.800 M77.668 625.800 C 77.674 626.240,77.824 627.050,78.000 627.600 L 78.320 628.600 78.332 627.600 C 78.338 627.050,78.189 626.240,78.000 625.800 L 77.656 625.000 77.668 625.800 M320.978 627.778 C 320.827 628.581,320.804 629.337,320.926 629.460 C 321.048 629.582,321.272 629.025,321.422 628.222 C 321.573 627.419,321.596 626.663,321.474 626.540 C 321.352 626.418,321.128 626.975,320.978 627.778 M78.468 631.600 C 78.462 632.150,78.611 632.960,78.800 633.400 L 79.144 634.200 79.132 633.400 C 79.126 632.960,78.976 632.150,78.800 631.600 L 78.480 630.600 78.468 631.600 M320.222 633.422 C 320.072 634.225,320.038 634.972,320.148 635.082 C 320.258 635.192,320.472 634.625,320.622 633.822 C 320.773 633.019,320.806 632.273,320.696 632.163 C 320.586 632.053,320.373 632.619,320.222 633.422 M79.275 637.400 C 79.265 638.060,79.411 638.960,79.600 639.400 L 79.944 640.200 79.925 639.400 C 79.914 638.960,79.768 638.060,79.600 637.400 L 79.295 636.200 79.275 637.400 M319.438 638.500 C 319.292 639.655,319.102 641.590,319.014 642.800 L 318.855 645.000 319.226 642.800 C 319.807 639.347,320.118 636.400,319.900 636.400 C 319.791 636.400,319.583 637.345,319.438 638.500 M80.064 642.000 C 80.037 642.990,80.281 644.700,80.606 645.800 L 81.196 647.800 80.938 646.000 C 80.796 645.010,80.553 643.300,80.396 642.200 L 80.113 640.200 80.064 642.000 M318.222 646.622 C 318.072 647.425,318.038 648.172,318.148 648.282 C 318.258 648.392,318.472 647.825,318.622 647.022 C 318.773 646.219,318.806 645.473,318.696 645.363 C 318.586 645.253,318.373 645.819,318.222 646.622 M81.246 650.800 C 81.227 651.350,81.387 652.070,81.600 652.400 C 82.094 653.164,82.094 652.342,81.600 650.800 L 81.280 649.800 81.246 650.800 M317.422 652.622 C 317.272 653.425,317.238 654.172,317.348 654.282 C 317.458 654.392,317.672 653.825,317.822 653.022 C 317.973 652.219,318.006 651.473,317.896 651.363 C 317.786 651.253,317.573 651.819,317.422 652.622 M316.854 656.376 C 316.825 657.133,316.628 658.753,316.417 659.976 C 316.206 661.199,315.825 663.424,315.570 664.919 C 315.314 666.415,315.198 667.732,315.312 667.845 C 315.425 667.959,315.725 666.735,315.978 665.126 C 316.230 663.517,316.628 661.030,316.862 659.600 C 317.095 658.170,317.201 656.550,317.098 656.000 C 316.945 655.192,316.898 655.265,316.854 656.376 M82.068 656.400 C 82.062 656.950,82.211 657.760,82.400 658.200 L 82.744 659.000 82.732 658.200 C 82.726 657.760,82.576 656.950,82.400 656.400 L 82.080 655.400 82.068 656.400 M83.040 661.600 C 83.142 663.030,83.389 665.190,83.588 666.400 L 83.952 668.600 83.738 666.000 C 83.621 664.570,83.375 662.410,83.190 661.200 L 82.855 659.000 83.040 661.600 M84.056 669.800 C 84.056 670.240,84.211 670.960,84.400 671.400 L 84.744 672.200 84.744 671.400 C 84.744 670.960,84.589 670.240,84.400 669.800 L 84.056 669.000 84.056 669.800 M314.849 670.800 C 314.816 671.130,314.689 671.850,314.567 672.400 C 314.375 673.264,314.407 673.303,314.799 672.688 C 315.048 672.297,315.175 671.577,315.081 671.088 C 314.986 670.600,314.882 670.470,314.849 670.800 M84.868 675.600 C 84.862 676.150,85.011 676.960,85.200 677.400 L 85.544 678.200 85.532 677.400 C 85.526 676.960,85.376 676.150,85.200 675.600 L 84.880 674.600 84.868 675.600 M313.656 678.200 C 313.360 679.740,313.200 681.540,313.299 682.200 C 313.435 683.103,313.495 682.945,313.540 681.560 C 313.573 680.548,313.794 679.163,314.031 678.483 C 314.268 677.803,314.401 676.832,314.327 676.324 C 314.253 675.812,313.954 676.648,313.656 678.200 M85.679 680.200 C 85.664 681.080,85.910 682.880,86.226 684.200 L 86.801 686.600 86.558 684.400 C 86.424 683.190,86.178 681.390,86.011 680.400 L 85.707 678.600 85.679 680.200 M312.578 684.978 C 312.427 685.781,312.394 686.527,312.504 686.637 C 312.614 686.747,312.827 686.181,312.978 685.378 C 313.128 684.575,313.162 683.828,313.052 683.718 C 312.942 683.608,312.728 684.175,312.578 684.978 M86.868 688.800 C 86.862 689.350,87.011 690.160,87.200 690.600 L 87.544 691.400 87.532 690.600 C 87.526 690.160,87.376 689.350,87.200 688.800 L 86.880 687.800 86.868 688.800 M311.822 690.622 C 311.672 691.425,311.638 692.172,311.748 692.282 C 311.858 692.392,312.072 691.825,312.222 691.022 C 312.373 690.219,312.406 689.473,312.296 689.363 C 312.186 689.253,311.973 689.819,311.822 690.622 M87.668 694.400 C 87.662 694.950,87.811 695.760,88.000 696.200 L 88.344 697.000 88.332 696.200 C 88.326 695.760,88.176 694.950,88.000 694.400 L 87.680 693.400 87.668 694.400 M311.022 696.622 C 310.872 697.425,310.828 698.162,310.926 698.260 C 311.024 698.357,311.227 697.781,311.378 696.978 C 311.528 696.175,311.572 695.438,311.474 695.340 C 311.376 695.243,311.173 695.819,311.022 696.622 M88.651 700.000 C 88.763 701.430,89.011 703.590,89.202 704.800 L 89.550 707.000 89.362 704.400 C 89.259 702.970,89.011 700.810,88.810 699.600 L 88.446 697.400 88.651 700.000 M310.514 700.600 C 310.517 701.700,310.595 702.103,310.687 701.495 C 310.779 700.886,310.777 699.986,310.682 699.495 C 310.587 699.003,310.511 699.500,310.514 700.600 M309.876 703.610 C 309.730 704.155,309.628 705.140,309.649 705.800 C 309.680 706.757,309.759 706.636,310.042 705.200 C 310.429 703.233,310.302 702.017,309.876 703.610 M89.668 708.000 C 89.662 708.550,89.811 709.360,90.000 709.800 L 90.344 710.600 90.332 709.800 C 90.326 709.360,90.176 708.550,90.000 708.000 L 89.680 707.000 89.668 708.000 M309.022 709.822 C 308.872 710.625,308.838 711.372,308.948 711.482 C 309.058 711.592,309.272 711.025,309.422 710.222 C 309.573 709.419,309.606 708.673,309.496 708.563 C 309.386 708.453,309.173 709.019,309.022 709.822 M90.468 713.600 C 90.462 714.150,90.611 714.960,90.800 715.400 L 91.144 716.200 91.132 715.400 C 91.126 714.960,90.976 714.150,90.800 713.600 L 90.480 712.600 90.468 713.600 M308.222 715.422 C 308.072 716.225,308.038 716.972,308.148 717.082 C 308.258 717.192,308.472 716.625,308.622 715.822 C 308.773 715.019,308.806 714.273,308.696 714.163 C 308.586 714.053,308.373 714.619,308.222 715.422 M91.421 719.400 C 91.520 720.500,91.772 722.300,91.980 723.400 L 92.359 725.400 92.169 723.200 C 92.065 721.990,91.813 720.190,91.610 719.200 L 91.240 717.400 91.421 719.400 M307.714 719.400 C 307.717 720.500,307.795 720.903,307.887 720.295 C 307.979 719.686,307.977 718.786,307.882 718.295 C 307.787 717.803,307.711 718.300,307.714 719.400 M307.000 723.200 C 306.846 724.110,306.804 724.938,306.907 725.040 C 307.010 725.143,307.213 724.477,307.360 723.560 C 307.507 722.643,307.548 721.815,307.453 721.720 C 307.358 721.624,307.154 722.290,307.000 723.200 M92.468 726.800 C 92.462 727.350,92.611 728.160,92.800 728.600 L 93.144 729.400 93.132 728.600 C 93.126 728.160,92.976 727.350,92.800 726.800 L 92.480 725.800 92.468 726.800 M306.222 728.622 C 306.072 729.425,306.038 730.172,306.148 730.282 C 306.258 730.392,306.472 729.825,306.622 729.022 C 306.773 728.219,306.806 727.473,306.696 727.363 C 306.586 727.253,306.373 727.819,306.222 728.622 M93.268 732.400 C 93.262 732.950,93.411 733.760,93.600 734.200 L 93.944 735.000 93.932 734.200 C 93.926 733.760,93.776 732.950,93.600 732.400 L 93.280 731.400 93.268 732.400 M305.422 734.222 C 305.272 735.025,305.238 735.772,305.348 735.882 C 305.458 735.992,305.672 735.425,305.822 734.622 C 305.973 733.819,306.006 733.073,305.896 732.963 C 305.786 732.853,305.573 733.419,305.422 734.222 M94.028 737.433 C 94.044 738.295,94.217 739.360,94.414 739.800 C 94.648 740.322,94.688 739.837,94.532 738.400 C 94.243 735.758,93.989 735.270,94.028 737.433 M304.909 738.400 C 304.909 739.390,304.987 739.795,305.082 739.300 C 305.178 738.805,305.178 737.995,305.082 737.500 C 304.987 737.005,304.909 737.410,304.909 738.400 M304.253 741.636 C 304.114 742.331,304.022 743.463,304.049 744.150 C 304.078 744.894,304.238 744.440,304.443 743.028 C 304.811 740.504,304.676 739.518,304.253 741.636 M94.909 742.400 C 94.909 743.390,94.987 743.795,95.082 743.300 C 95.178 742.805,95.178 741.995,95.082 741.500 C 94.987 741.005,94.909 741.410,94.909 742.400 M95.268 745.400 C 95.274 745.840,95.424 746.650,95.600 747.200 L 95.920 748.200 95.932 747.200 C 95.938 746.650,95.789 745.840,95.600 745.400 L 95.256 744.600 95.268 745.400 M303.378 747.378 C 303.227 748.181,303.194 748.927,303.304 749.037 C 303.414 749.147,303.627 748.581,303.778 747.778 C 303.928 746.975,303.962 746.228,303.852 746.118 C 303.742 746.008,303.528 746.575,303.378 747.378 M96.046 750.800 C 96.027 751.350,96.187 752.070,96.400 752.400 C 96.894 753.164,96.894 752.342,96.400 750.800 L 96.080 749.800 96.046 750.800 M302.854 751.667 C 302.825 752.034,302.684 752.664,302.541 753.067 C 302.341 753.633,302.395 753.696,302.775 753.346 C 303.046 753.097,303.187 752.467,303.088 751.946 C 302.990 751.426,302.884 751.300,302.854 751.667 M302.101 755.400 C 302.105 756.280,302.187 756.593,302.283 756.095 C 302.379 755.598,302.375 754.878,302.275 754.495 C 302.175 754.113,302.096 754.520,302.101 755.400 M96.856 755.000 C 96.856 755.440,97.011 756.160,97.200 756.600 L 97.544 757.400 97.544 756.600 C 97.544 756.160,97.389 755.440,97.200 755.000 L 96.856 754.200 96.856 755.000 M301.453 758.436 C 301.314 759.131,301.222 760.263,301.249 760.950 C 301.278 761.694,301.438 761.240,301.643 759.828 C 302.011 757.304,301.876 756.318,301.453 758.436 M97.709 759.200 C 97.709 760.190,97.787 760.595,97.882 760.100 C 97.978 759.605,97.978 758.795,97.882 758.300 C 97.787 757.805,97.709 758.210,97.709 759.200 M98.080 762.000 C 98.080 762.550,98.224 763.450,98.400 764.000 L 98.720 765.000 98.720 764.000 C 98.720 763.450,98.576 762.550,98.400 762.000 L 98.080 761.000 98.080 762.000 M300.622 764.222 C 300.472 765.025,300.428 765.762,300.526 765.860 C 300.624 765.957,300.827 765.381,300.978 764.578 C 301.128 763.775,301.172 763.038,301.074 762.940 C 300.976 762.843,300.773 763.419,300.622 764.222 M98.868 767.600 C 98.862 768.150,99.011 768.960,99.200 769.400 L 99.544 770.200 99.532 769.400 C 99.526 768.960,99.376 768.150,99.200 767.600 L 98.880 766.600 98.868 767.600 M300.049 768.800 C 300.016 769.130,299.889 769.850,299.767 770.400 C 299.575 771.264,299.607 771.303,299.999 770.688 C 300.248 770.297,300.375 769.577,300.281 769.088 C 300.186 768.600,300.082 768.470,300.049 768.800 M99.628 773.033 C 99.644 773.675,99.816 774.560,100.010 775.000 C 100.247 775.534,100.286 775.202,100.127 774.000 C 99.846 771.880,99.588 771.380,99.628 773.033 M299.264 773.450 C 299.229 774.138,299.111 775.308,299.001 776.050 L 298.803 777.400 299.224 776.058 C 299.455 775.320,299.573 774.150,299.486 773.458 L 299.328 772.200 299.264 773.450 M100.509 778.000 C 100.509 778.990,100.587 779.395,100.682 778.900 C 100.778 778.405,100.778 777.595,100.682 777.100 C 100.587 776.605,100.509 777.010,100.509 778.000 M298.509 779.200 C 298.509 780.190,298.587 780.595,298.682 780.100 C 298.778 779.605,298.778 778.795,298.682 778.300 C 298.587 777.805,298.509 778.210,298.509 779.200 M101.072 781.800 C 101.199 782.900,101.369 783.875,101.451 783.967 C 101.732 784.282,101.520 781.799,101.180 780.800 C 100.951 780.126,100.916 780.451,101.072 781.800 M297.800 782.800 C 297.646 783.710,297.611 784.544,297.721 784.654 C 297.831 784.764,298.046 784.110,298.200 783.200 C 298.354 782.290,298.389 781.456,298.279 781.346 C 298.169 781.236,297.954 781.890,297.800 782.800 M101.668 786.400 C 101.662 786.950,101.811 787.760,102.000 788.200 L 102.344 789.000 102.332 788.200 C 102.326 787.760,102.176 786.950,102.000 786.400 L 101.680 785.400 101.668 786.400 M297.249 787.200 C 297.216 787.530,297.089 788.250,296.967 788.800 C 296.775 789.664,296.807 789.703,297.199 789.088 C 297.448 788.697,297.575 787.977,297.481 787.488 C 297.386 787.000,297.282 786.870,297.249 787.200 M102.475 791.800 C 102.465 792.460,102.611 793.360,102.800 793.800 L 103.144 794.600 103.125 793.800 C 103.114 793.360,102.968 792.460,102.800 791.800 L 102.495 790.600 102.475 791.800 M296.464 791.850 C 296.429 792.538,296.311 793.707,296.201 794.450 L 296.003 795.800 296.424 794.458 C 296.655 793.720,296.773 792.550,296.686 791.858 L 296.528 790.600 296.464 791.850 M103.309 796.400 C 103.309 797.390,103.387 797.795,103.482 797.300 C 103.578 796.805,103.578 795.995,103.482 795.500 C 103.387 795.005,103.309 795.410,103.309 796.400 M295.709 797.600 C 295.709 798.590,295.787 798.995,295.882 798.500 C 295.978 798.005,295.978 797.195,295.882 796.700 C 295.787 796.205,295.709 796.610,295.709 797.600 M295.040 801.240 C 294.893 802.157,294.852 802.985,294.947 803.080 C 295.042 803.176,295.246 802.510,295.400 801.600 C 295.554 800.690,295.596 799.862,295.493 799.760 C 295.390 799.657,295.187 800.323,295.040 801.240 M104.093 801.600 C 104.093 802.370,104.175 802.685,104.276 802.300 C 104.376 801.915,104.376 801.285,104.276 800.900 C 104.175 800.515,104.093 800.830,104.093 801.600 M104.487 804.800 C 104.483 805.350,104.624 806.250,104.800 806.800 C 105.231 808.144,105.231 806.692,104.800 805.000 C 104.526 803.922,104.494 803.902,104.487 804.800 M294.240 806.840 C 294.093 807.757,294.052 808.585,294.147 808.680 C 294.242 808.776,294.446 808.110,294.600 807.200 C 294.754 806.290,294.796 805.462,294.693 805.360 C 294.590 805.257,294.387 805.923,294.240 806.840 M105.275 810.600 C 105.265 811.260,105.411 812.160,105.600 812.600 L 105.944 813.400 105.925 812.600 C 105.914 812.160,105.768 811.260,105.600 810.600 L 105.295 809.400 105.275 810.600 M293.418 812.618 C 293.265 813.639,293.230 814.563,293.340 814.673 C 293.450 814.783,293.665 814.039,293.818 813.018 C 293.971 811.998,294.006 811.073,293.896 810.963 C 293.786 810.853,293.571 811.598,293.418 812.618 M106.246 816.400 C 106.356 817.830,106.607 819.900,106.803 821.000 C 107.131 822.835,107.141 822.786,106.929 820.400 C 106.801 818.970,106.551 816.900,106.372 815.800 C 106.078 814.000,106.066 814.060,106.246 816.400 M292.914 817.000 C 292.917 818.100,292.995 818.503,293.087 817.895 C 293.179 817.286,293.177 816.386,293.082 815.895 C 292.987 815.403,292.911 815.900,292.914 817.000 M292.185 821.385 C 292.030 822.623,291.990 823.723,292.095 823.829 C 292.201 823.934,292.407 823.001,292.554 821.754 C 292.700 820.507,292.741 819.407,292.643 819.310 C 292.546 819.212,292.339 820.146,292.185 821.385 M107.541 824.901 C 107.706 825.066,149.322 825.156,200.021 825.101 L 292.200 825.000 199.720 824.800 C 148.856 824.690,107.375 824.735,107.541 824.901 " stroke="none" fill="#646464" fill-rule="evenodd">
    </path>

    <path id="path3" d="" stroke="none" fill="#5c5c5c" fill-rule="evenodd"></path>

    <path id="path4" d="M107.681 15.279 C 107.416 15.544,107.205 15.949,107.212 16.180 C 107.219 16.411,107.408 16.285,107.632 15.900 C 108.116 15.068,291.325 14.780,291.737 15.610 C 291.849 15.835,291.894 15.790,291.837 15.510 C 291.689 14.783,108.407 14.553,107.681 15.279 M105.455 19.883 C 105.100 20.718,104.546 21.985,104.224 22.700 C 103.902 23.415,103.722 24.000,103.824 24.000 C 104.104 24.000,106.461 18.728,106.268 18.535 C 106.176 18.442,105.810 19.049,105.455 19.883 M102.486 26.286 C 101.369 28.712,101.597 28.939,102.800 26.600 C 103.311 25.607,103.643 24.709,103.538 24.604 C 103.433 24.499,102.959 25.256,102.486 26.286 M297.228 27.800 C 297.228 28.020,297.486 28.650,297.800 29.200 C 298.114 29.750,298.372 30.020,298.372 29.800 C 298.372 29.580,298.114 28.950,297.800 28.400 C 297.486 27.850,297.228 27.580,297.228 27.800 M98.906 33.913 C 97.740 36.302,97.993 36.548,99.200 34.200 C 99.711 33.207,100.054 32.324,99.964 32.238 C 99.874 32.152,99.398 32.905,98.906 33.913 M300.028 33.800 C 300.028 34.020,300.286 34.650,300.600 35.200 C 300.914 35.750,301.172 36.020,301.172 35.800 C 301.172 35.580,300.914 34.950,300.600 34.400 C 300.286 33.850,300.028 33.580,300.028 33.800 M96.875 38.219 C 95.670 40.700,95.805 41.047,97.046 38.661 C 97.601 37.594,97.987 36.653,97.903 36.570 C 97.819 36.486,97.357 37.228,96.875 38.219 M302.802 39.425 C 302.799 39.948,304.349 43.200,304.601 43.200 C 304.785 43.200,304.231 41.828,303.309 40.000 C 303.032 39.450,302.804 39.191,302.802 39.425 M304.928 44.300 C 305.024 44.465,305.572 45.635,306.146 46.900 C 306.720 48.165,307.292 49.200,307.418 49.200 C 307.544 49.200,307.568 49.065,307.472 48.900 C 307.376 48.735,306.828 47.565,306.254 46.300 C 305.680 45.035,305.108 44.000,304.982 44.000 C 304.856 44.000,304.832 44.135,304.928 44.300 M93.070 46.210 C 92.921 46.645,92.691 47.270,92.558 47.600 C 92.426 47.930,92.619 47.790,92.988 47.290 C 93.358 46.789,93.588 46.164,93.500 45.900 C 93.410 45.631,93.222 45.767,93.070 46.210 M307.671 50.300 C 308.813 52.797,309.665 54.393,309.950 54.569 C 310.143 54.689,309.776 53.709,309.134 52.393 C 308.492 51.077,307.869 50.000,307.750 50.000 C 307.631 50.000,307.595 50.135,307.671 50.300 M311.214 57.425 C 311.206 57.659,311.641 58.739,312.179 59.825 C 312.717 60.911,313.157 61.620,313.156 61.400 C 313.153 60.838,311.232 56.905,311.214 57.425 M87.300 58.693 C 86.588 60.211,86.684 60.833,87.413 59.433 C 87.748 58.791,87.972 58.122,87.911 57.946 C 87.850 57.770,87.575 58.106,87.300 58.693 M313.200 62.132 C 313.200 62.205,313.649 63.150,314.198 64.232 C 315.387 66.575,315.556 66.087,314.391 63.675 C 313.707 62.259,313.200 61.603,313.200 62.132 M82.386 69.501 C 81.545 71.187,81.540 71.200,81.747 71.200 C 82.005 71.200,83.242 68.708,83.069 68.536 C 82.995 68.462,82.688 68.896,82.386 69.501 M317.602 71.425 C 317.599 71.948,319.149 75.200,319.401 75.200 C 319.585 75.200,319.031 73.828,318.109 72.000 C 317.832 71.450,317.604 71.191,317.602 71.425 M80.506 73.513 C 80.014 74.521,79.689 75.422,79.783 75.517 C 79.877 75.611,80.348 74.851,80.829 73.829 C 81.309 72.806,81.634 71.904,81.551 71.825 C 81.468 71.746,80.998 72.505,80.506 73.513 M78.486 77.886 C 77.369 80.312,77.597 80.539,78.800 78.200 C 79.311 77.207,79.643 76.309,79.538 76.204 C 79.433 76.099,78.959 76.856,78.486 77.886 M320.402 77.425 C 320.399 78.011,322.353 81.906,322.379 81.368 C 322.391 81.130,321.951 80.050,321.402 78.968 C 320.853 77.886,320.403 77.191,320.402 77.425 M75.300 84.693 C 74.588 86.211,74.684 86.833,75.413 85.433 C 75.748 84.791,75.972 84.122,75.911 83.946 C 75.850 83.770,75.575 84.106,75.300 84.693 M324.015 85.600 C 324.021 85.930,324.290 86.549,324.613 86.976 C 325.368 87.975,325.363 87.605,324.602 86.146 C 324.274 85.516,324.010 85.270,324.015 85.600 M326.009 89.505 C 326.004 89.783,326.159 90.323,326.353 90.705 C 326.548 91.087,326.938 91.895,327.221 92.499 C 327.503 93.104,327.807 93.527,327.895 93.438 C 327.983 93.350,327.879 92.945,327.664 92.539 C 327.449 92.133,326.990 91.170,326.645 90.400 C 326.300 89.630,326.014 89.227,326.009 89.505 M72.485 90.973 C 71.815 92.444,71.878 92.752,72.630 91.679 C 72.976 91.184,73.195 90.584,73.115 90.344 C 73.035 90.105,72.752 90.388,72.485 90.973 M328.802 95.862 C 328.800 96.406,330.484 99.649,330.671 99.462 C 330.742 99.392,330.350 98.449,329.801 97.367 C 329.252 96.285,328.803 95.608,328.802 95.862 M69.306 97.913 C 68.814 98.921,68.489 99.822,68.583 99.917 C 68.677 100.011,69.148 99.251,69.629 98.229 C 70.109 97.206,70.434 96.304,70.351 96.225 C 70.268 96.146,69.798 96.905,69.306 97.913 M66.506 103.913 C 65.340 106.302,65.593 106.548,66.800 104.200 C 67.311 103.207,67.654 102.324,67.564 102.238 C 67.474 102.152,66.998 102.905,66.506 103.913 M332.427 104.000 C 332.426 104.330,332.690 104.949,333.013 105.376 C 333.760 106.364,333.752 105.715,333.000 104.400 C 332.668 103.820,332.428 103.652,332.427 104.000 M334.400 108.129 C 334.400 108.284,334.565 108.723,334.766 109.105 C 334.968 109.487,335.442 110.520,335.820 111.400 C 337.292 114.828,339.177 118.575,339.188 118.095 C 339.195 117.817,339.023 117.277,338.807 116.895 C 337.920 115.325,335.599 110.237,335.587 109.834 C 335.573 109.358,334.400 107.673,334.400 108.129 M63.651 110.180 C 62.477 112.679,62.616 113.056,63.818 110.631 C 64.355 109.548,64.729 108.596,64.649 108.515 C 64.568 108.435,64.119 109.184,63.651 110.180 M61.233 115.261 C 60.555 116.651,60.001 117.971,60.001 118.194 C 60.002 118.417,60.630 117.353,61.398 115.830 C 62.165 114.306,62.720 112.986,62.630 112.896 C 62.540 112.806,61.911 113.870,61.233 115.261 M58.062 122.062 C 57.577 122.970,57.242 123.776,57.318 123.852 C 57.395 123.928,57.854 123.247,58.338 122.338 C 58.823 121.430,59.158 120.624,59.082 120.548 C 59.005 120.472,58.546 121.153,58.062 122.062 M340.829 122.224 C 340.845 122.431,341.203 123.140,341.623 123.800 C 342.044 124.460,342.566 125.405,342.784 125.900 C 343.002 126.395,343.258 126.800,343.353 126.800 C 343.712 126.800,343.089 125.206,342.557 124.764 C 342.251 124.510,341.994 124.099,341.987 123.851 C 341.980 123.603,341.710 123.051,341.387 122.624 C 341.064 122.196,340.813 122.016,340.829 122.224 M54.887 128.289 C 54.165 129.509,53.635 130.568,53.709 130.643 C 53.784 130.717,54.444 129.788,55.178 128.578 C 55.911 127.368,56.441 126.309,56.356 126.224 C 56.270 126.139,55.609 127.068,54.887 128.289 M343.600 127.328 C 343.600 127.501,344.050 128.305,344.600 129.114 C 345.150 129.923,345.600 130.444,345.600 130.272 C 345.600 130.099,345.150 129.295,344.600 128.486 C 344.050 127.677,343.600 127.156,343.600 127.328 M345.618 130.898 C 345.608 131.062,346.230 132.561,347.000 134.228 C 347.770 135.895,348.400 137.340,348.400 137.439 C 348.400 137.539,349.210 139.331,350.200 141.421 C 351.190 143.512,352.000 145.290,352.000 145.372 C 352.000 145.690,355.262 152.400,355.417 152.400 C 355.645 152.400,355.129 151.141,353.288 147.200 C 350.919 142.128,349.584 139.169,348.933 137.545 C 348.108 135.488,345.640 130.540,345.618 130.898 M52.451 132.980 C 51.983 133.976,51.600 134.870,51.600 134.966 C 51.600 135.063,50.970 136.505,50.200 138.172 C 49.430 139.839,48.800 141.272,48.800 141.356 C 48.800 141.440,48.012 143.195,47.048 145.255 C 43.317 153.231,42.400 155.333,42.573 155.507 C 42.720 155.653,45.200 150.602,45.200 150.156 C 45.200 150.082,46.028 148.262,47.040 146.111 C 48.053 143.960,49.112 141.660,49.394 141.000 C 49.676 140.340,50.305 138.900,50.792 137.800 C 51.279 136.700,51.945 135.170,52.273 134.400 C 52.600 133.630,53.045 132.667,53.261 132.261 C 53.478 131.855,53.576 131.443,53.479 131.346 C 53.382 131.249,52.919 131.984,52.451 132.980 M355.600 153.072 C 355.600 153.295,355.853 154.000,356.163 154.639 C 357.301 156.986,359.574 161.905,361.320 165.800 C 363.444 170.538,364.224 172.237,369.594 183.800 C 371.842 188.640,373.848 193.030,374.052 193.555 C 374.256 194.081,374.515 194.418,374.629 194.304 C 374.830 194.103,374.314 192.904,370.800 185.400 C 368.871 181.280,367.302 177.879,366.004 175.000 C 365.508 173.900,364.515 171.740,363.797 170.200 C 363.079 168.660,361.011 164.160,359.202 160.200 C 355.839 152.841,355.600 152.368,355.600 153.072 M41.053 158.197 C 40.474 159.421,40.000 160.489,40.000 160.571 C 40.000 160.653,39.304 162.223,38.453 164.060 C 35.918 169.530,34.375 172.869,33.305 175.200 C 32.750 176.410,31.670 178.750,30.906 180.400 C 30.141 182.050,29.065 184.390,28.514 185.600 C 27.342 188.174,25.658 191.819,23.733 195.946 C 22.977 197.567,22.431 198.964,22.519 199.053 C 22.607 199.141,24.405 195.475,26.514 190.906 C 28.622 186.338,31.170 180.854,32.174 178.719 C 33.178 176.585,34.000 174.762,34.000 174.669 C 34.000 174.576,35.054 172.272,36.342 169.550 C 38.727 164.507,40.010 161.702,41.073 159.200 C 41.400 158.430,41.845 157.467,42.061 157.061 C 42.278 156.655,42.377 156.244,42.281 156.148 C 42.185 156.052,41.632 156.974,41.053 158.197 M374.819 195.100 C 374.846 195.506,377.556 200.665,377.581 200.355 C 377.612 199.960,375.211 194.800,374.996 194.800 C 374.888 194.800,374.809 194.935,374.819 195.100 M20.446 203.046 C 19.531 204.954,18.865 206.598,18.967 206.700 C 19.069 206.802,19.887 205.310,20.785 203.385 C 21.683 201.459,22.348 199.815,22.264 199.731 C 22.180 199.646,21.362 201.138,20.446 203.046 M377.625 200.845 C 377.579 201.300,380.046 206.488,380.223 206.310 C 380.320 206.213,379.781 204.889,379.024 203.367 C 378.268 201.845,377.638 200.710,377.625 200.845 M380.436 207.000 C 380.436 207.220,380.870 208.210,381.400 209.200 C 381.930 210.190,382.364 210.820,382.364 210.600 C 382.364 210.380,381.930 209.390,381.400 208.400 C 380.870 207.410,380.436 206.780,380.436 207.000 M18.065 208.217 C 17.395 209.688,17.523 210.002,18.247 208.665 C 18.586 208.040,18.788 207.454,18.696 207.363 C 18.605 207.271,18.321 207.656,18.065 208.217 M382.493 212.400 C 382.493 213.170,382.575 213.485,382.676 213.100 C 382.776 212.715,382.776 212.085,382.676 211.700 C 382.575 211.315,382.493 211.630,382.493 212.400 M16.838 214.069 C 16.817 214.658,16.972 216.008,17.182 217.069 C 17.392 218.131,17.781 220.576,18.047 222.502 C 18.312 224.428,18.620 225.914,18.730 225.804 C 18.941 225.592,18.259 220.488,17.393 215.800 C 17.109 214.260,16.859 213.481,16.838 214.069 M381.656 217.822 C 381.356 219.815,381.201 221.795,381.309 222.222 C 381.418 222.651,381.528 222.317,381.554 221.477 C 381.579 220.640,381.795 219.182,382.032 218.237 C 382.270 217.293,382.405 215.998,382.332 215.360 C 382.256 214.687,381.971 215.722,381.656 217.822 M380.676 224.010 C 380.530 224.555,380.428 225.540,380.449 226.200 C 380.480 227.157,380.559 227.036,380.842 225.600 C 381.229 223.633,381.102 222.417,380.676 224.010 M18.980 228.800 C 19.271 230.596,19.614 232.903,20.377 238.200 C 20.599 239.740,20.960 241.810,21.180 242.800 L 21.580 244.600 21.362 242.600 C 20.758 237.061,19.257 227.518,18.944 227.233 C 18.804 227.105,18.820 227.810,18.980 228.800 M379.800 230.000 C 379.646 230.910,379.611 231.744,379.721 231.854 C 379.831 231.964,380.046 231.310,380.200 230.400 C 380.354 229.490,380.389 228.656,380.279 228.546 C 380.169 228.436,379.954 229.090,379.800 230.000 M379.076 234.500 C 378.659 237.977,378.383 241.450,378.560 241.000 C 378.918 240.086,379.684 233.738,379.525 233.000 C 379.430 232.560,379.228 233.235,379.076 234.500 M377.882 242.750 C 377.727 243.493,377.620 244.572,377.644 245.150 C 377.673 245.842,377.810 245.587,378.047 244.400 C 378.245 243.410,378.352 242.330,378.285 242.000 C 378.219 241.670,378.038 242.007,377.882 242.750 M21.632 246.080 C 21.614 246.674,21.763 248.024,21.961 249.080 C 22.160 250.136,22.530 252.530,22.784 254.400 C 23.038 256.270,23.493 259.420,23.796 261.400 C 24.099 263.380,24.545 266.350,24.788 268.000 C 25.030 269.650,25.396 272.080,25.601 273.400 C 26.131 276.816,27.141 283.684,27.630 287.200 C 27.860 288.850,28.211 291.280,28.411 292.600 C 28.610 293.920,29.051 296.890,29.391 299.200 C 29.730 301.510,30.187 304.570,30.406 306.000 C 30.624 307.430,31.081 310.490,31.419 312.800 C 31.758 315.110,32.196 318.080,32.394 319.400 C 32.591 320.720,32.955 323.240,33.204 325.000 C 33.452 326.760,33.902 329.820,34.205 331.800 C 34.508 333.780,34.955 336.840,35.198 338.600 C 35.442 340.360,35.807 342.790,36.011 344.000 C 36.409 346.370,37.266 352.135,38.032 357.600 C 38.294 359.470,38.752 362.350,39.049 364.000 C 40.216 370.482,38.631 357.614,37.005 347.400 C 36.380 343.475,35.970 340.687,35.228 335.300 C 35.023 333.815,34.660 331.430,34.420 330.000 C 33.956 327.228,33.483 324.048,32.815 319.200 C 32.365 315.929,31.380 309.198,30.797 305.400 C 30.594 304.080,30.230 301.650,29.988 300.000 C 29.745 298.350,29.290 295.380,28.977 293.400 C 28.663 291.420,27.958 286.650,27.411 282.800 C 26.863 278.950,26.141 274.000,25.806 271.800 C 25.059 266.899,23.396 255.673,22.575 250.000 C 21.908 245.389,21.680 244.440,21.632 246.080 M376.982 248.982 C 376.829 250.002,376.802 250.935,376.922 251.055 C 377.042 251.175,377.265 250.439,377.418 249.418 C 377.571 248.398,377.598 247.465,377.478 247.345 C 377.358 247.225,377.135 247.961,376.982 248.982 M376.454 252.633 C 376.425 253.312,376.231 254.842,376.024 256.033 C 374.899 262.516,374.691 264.025,374.895 264.228 C 375.018 264.351,375.319 263.135,375.563 261.526 C 375.808 259.917,376.206 257.430,376.447 256.000 C 376.689 254.570,376.801 252.950,376.698 252.400 C 376.530 251.509,376.503 251.535,376.454 252.633 M374.054 268.500 C 373.788 270.315,373.129 274.860,372.590 278.600 C 372.051 282.340,371.433 286.570,371.216 288.000 C 371.000 289.430,370.367 293.660,369.811 297.400 C 369.254 301.140,368.622 305.370,368.406 306.800 C 367.865 310.372,366.852 317.263,366.406 320.400 C 365.836 324.411,365.275 328.222,364.608 332.600 C 364.273 334.800,363.827 337.770,363.616 339.200 C 363.406 340.630,362.960 343.600,362.626 345.800 C 362.292 348.000,361.823 351.240,361.584 353.000 C 361.345 354.760,360.981 357.069,360.775 358.131 C 360.569 359.192,360.424 360.812,360.452 361.731 C 360.503 363.333,360.518 363.312,360.820 361.200 C 361.503 356.428,361.973 353.215,362.605 349.000 C 362.968 346.580,363.420 343.520,363.609 342.200 C 363.798 340.880,364.240 338.000,364.591 335.800 C 364.941 333.600,365.414 330.450,365.641 328.800 C 366.544 322.241,367.078 318.618,368.203 311.400 C 368.545 309.200,368.993 306.140,369.198 304.600 C 369.403 303.060,369.856 300.000,370.206 297.800 C 370.556 295.600,370.999 292.630,371.191 291.200 C 371.828 286.450,372.385 282.641,373.004 278.800 C 373.613 275.023,374.223 270.734,374.669 267.100 C 375.065 263.873,374.567 265.007,374.054 268.500 M359.626 366.474 C 359.375 368.083,358.989 370.570,358.768 372.000 C 358.547 373.430,358.194 375.601,357.983 376.824 C 357.772 378.047,357.625 379.757,357.656 380.624 C 357.711 382.159,357.720 382.148,358.006 380.200 C 358.167 379.100,358.500 376.850,358.745 375.200 C 360.031 366.572,360.384 363.851,360.240 363.707 C 360.153 363.619,359.876 364.865,359.626 366.474 M39.646 367.833 C 39.621 368.292,39.770 369.642,39.977 370.833 C 40.185 372.025,40.564 374.620,40.821 376.600 C 41.078 378.580,41.538 381.370,41.844 382.800 C 42.439 385.590,42.362 384.400,41.599 379.000 C 41.412 377.680,41.064 375.160,40.825 373.400 C 40.292 369.472,39.708 366.713,39.646 367.833 M356.869 384.882 C 356.014 389.905,355.282 395.467,355.037 398.800 C 354.831 401.613,354.965 401.069,355.629 396.400 C 356.693 388.916,356.881 387.649,357.277 385.282 C 357.508 383.897,357.607 382.674,357.497 382.564 C 357.387 382.454,357.105 383.497,356.869 384.882 M42.655 387.800 C 42.777 389.120,43.019 391.190,43.194 392.400 C 43.369 393.610,43.720 396.130,43.975 398.000 C 44.582 402.443,45.288 405.663,44.941 402.400 C 44.484 398.096,43.265 389.423,42.806 387.200 C 42.461 385.529,42.450 385.572,42.655 387.800 M354.276 402.410 C 354.130 402.955,354.028 403.940,354.049 404.600 C 354.080 405.557,354.159 405.436,354.442 404.000 C 354.829 402.033,354.702 400.817,354.276 402.410 M45.420 407.200 C 45.542 407.970,45.812 409.905,46.020 411.500 C 46.896 418.190,47.219 420.274,47.586 421.600 L 47.974 423.000 47.790 421.400 C 47.688 420.520,47.431 418.540,47.218 417.000 C 47.005 415.460,46.649 412.850,46.427 411.200 C 46.205 409.550,45.838 407.660,45.611 407.000 C 45.200 405.801,45.199 405.801,45.420 407.200 M353.437 408.000 C 353.258 409.210,352.949 411.280,352.750 412.600 C 352.551 413.920,352.313 416.170,352.222 417.600 C 352.049 420.301,352.125 420.027,352.798 415.500 C 353.019 414.015,353.401 411.581,353.647 410.091 C 353.893 408.602,354.019 407.027,353.928 406.591 C 353.836 406.156,353.616 406.790,353.437 408.000 M351.476 421.210 C 351.330 421.755,351.227 422.650,351.246 423.200 C 351.271 423.918,351.384 423.757,351.649 422.627 C 352.055 420.895,351.900 419.625,351.476 421.210 M48.234 425.800 C 48.355 426.680,48.616 428.660,48.812 430.200 C 49.794 437.886,51.141 445.617,50.555 440.200 C 50.436 439.100,50.185 437.120,49.999 435.800 C 49.812 434.480,49.468 431.960,49.234 430.200 C 49.000 428.440,48.629 426.370,48.411 425.600 L 48.014 424.200 48.234 425.800 M350.648 426.600 C 350.467 427.920,350.156 430.170,349.957 431.600 C 349.758 433.030,349.521 435.370,349.431 436.800 C 349.341 438.230,349.340 438.860,349.429 438.200 C 349.708 436.144,350.381 431.718,350.843 428.900 C 351.087 427.415,351.216 425.750,351.131 425.200 C 351.035 424.584,350.850 425.120,350.648 426.600 M348.673 440.153 C 348.523 440.545,348.418 441.436,348.440 442.133 C 348.479 443.367,348.490 443.359,348.849 441.827 C 349.245 440.137,349.124 438.979,348.673 440.153 M51.023 445.200 C 51.158 445.970,51.427 447.770,51.622 449.200 C 51.816 450.630,52.161 453.150,52.387 454.800 C 52.613 456.450,52.975 458.430,53.191 459.200 C 53.624 460.740,53.600 460.466,52.796 454.600 C 52.615 453.280,52.272 450.733,52.035 448.941 C 51.798 447.148,51.418 445.258,51.191 444.741 C 50.840 443.939,50.815 444.007,51.023 445.200 M347.648 447.474 C 347.410 448.973,347.115 450.830,346.993 451.600 C 346.871 452.370,346.700 454.080,346.613 455.400 C 346.446 457.922,346.532 457.575,347.213 453.000 C 347.442 451.460,347.824 449.066,348.062 447.681 C 348.300 446.295,348.402 445.068,348.288 444.955 C 348.175 444.841,347.887 445.975,347.648 447.474 M345.778 459.378 C 345.627 460.181,345.594 460.927,345.704 461.037 C 345.814 461.147,346.027 460.581,346.178 459.778 C 346.328 458.975,346.362 458.228,346.252 458.118 C 346.142 458.008,345.928 458.575,345.778 459.378 M53.820 463.600 C 54.089 465.158,54.665 468.951,55.188 472.600 L 55.531 475.000 55.413 472.600 C 55.254 469.390,54.475 464.231,53.979 463.107 C 53.649 462.359,53.621 462.446,53.820 463.600 M345.061 464.000 C 344.370 468.162,343.977 471.144,343.822 473.400 C 343.642 476.031,343.892 474.814,344.563 469.800 C 344.710 468.700,345.024 466.891,345.260 465.780 C 345.496 464.669,345.615 463.409,345.525 462.980 C 345.428 462.523,345.237 462.945,345.061 464.000 M55.850 476.800 C 56.175 479.041,56.402 479.360,56.394 477.567 C 56.391 476.815,56.208 475.930,55.988 475.600 C 55.709 475.181,55.667 475.542,55.850 476.800 M343.049 477.015 C 342.912 477.373,342.818 478.146,342.840 478.733 C 342.873 479.591,342.952 479.495,343.246 478.240 C 343.622 476.639,343.495 475.853,343.049 477.015 M56.468 481.000 C 56.474 481.440,56.624 482.250,56.800 482.800 L 57.120 483.800 57.132 482.800 C 57.138 482.250,56.989 481.440,56.800 481.000 L 56.456 480.200 56.468 481.000 M342.200 482.800 C 342.048 483.491,342.014 484.147,342.124 484.257 C 342.234 484.367,342.448 483.891,342.600 483.200 C 342.752 482.509,342.786 481.853,342.676 481.743 C 342.566 481.633,342.352 482.109,342.200 482.800 M57.253 484.976 C 57.198 486.191,57.658 489.089,58.622 493.600 C 59.235 496.469,59.130 495.037,58.386 490.400 C 57.349 483.926,57.310 483.739,57.253 484.976 M341.458 486.600 C 341.301 487.700,341.105 489.590,341.022 490.800 L 340.870 493.000 341.220 491.000 C 341.412 489.900,341.684 488.346,341.823 487.547 C 341.963 486.747,342.001 485.757,341.909 485.347 C 341.817 484.936,341.614 485.500,341.458 486.600 M340.178 494.578 C 340.027 495.381,339.994 496.127,340.104 496.237 C 340.214 496.347,340.427 495.781,340.578 494.978 C 340.728 494.175,340.762 493.428,340.652 493.318 C 340.542 493.208,340.328 493.775,340.178 494.578 M59.256 498.600 C 59.256 499.040,59.411 499.760,59.600 500.200 L 59.944 501.000 59.944 500.200 C 59.944 499.760,59.789 499.040,59.600 498.600 L 59.256 497.800 59.256 498.600 M339.248 501.074 C 339.010 502.573,338.714 504.430,338.590 505.200 C 338.467 505.970,338.299 507.770,338.216 509.200 C 338.134 510.630,338.140 511.260,338.229 510.600 C 338.555 508.198,339.240 503.741,339.662 501.281 C 339.900 499.895,340.002 498.668,339.888 498.555 C 339.775 498.441,339.487 499.575,339.248 501.074 M60.252 503.800 C 60.361 505.120,60.603 507.280,60.790 508.600 L 61.131 511.000 60.970 508.400 C 60.881 506.970,60.639 504.810,60.432 503.600 L 60.055 501.400 60.252 503.800 M61.466 513.200 C 61.601 514.410,61.777 515.475,61.856 515.567 C 62.194 515.958,61.952 512.144,61.604 511.600 C 61.348 511.199,61.302 511.730,61.466 513.200 M337.449 512.615 C 337.312 512.973,337.218 513.746,337.240 514.333 C 337.273 515.191,337.352 515.095,337.646 513.840 C 338.022 512.239,337.895 511.453,337.449 512.615 M62.046 517.200 C 62.065 517.530,62.224 518.250,62.400 518.800 L 62.720 519.800 62.754 518.800 C 62.773 518.250,62.613 517.530,62.400 517.200 C 62.055 516.667,62.016 516.667,62.046 517.200 M336.600 518.800 C 336.448 519.491,336.407 520.141,336.509 520.242 C 336.611 520.344,336.809 519.853,336.950 519.150 C 337.283 517.483,336.960 517.160,336.600 518.800 M335.827 523.300 C 335.690 524.455,335.510 526.480,335.427 527.800 L 335.277 530.200 335.616 528.000 C 336.218 524.094,336.504 521.200,336.288 521.200 C 336.172 521.200,335.965 522.145,335.827 523.300 M63.005 523.400 C 63.128 524.060,63.398 525.860,63.605 527.400 C 63.813 528.940,64.158 530.920,64.371 531.800 L 64.760 533.400 64.594 531.800 C 64.118 527.222,63.621 524.095,63.225 523.200 C 62.796 522.230,62.790 522.236,63.005 523.400 M334.676 531.210 C 334.530 531.755,334.427 532.650,334.446 533.200 C 334.471 533.918,334.584 533.757,334.849 532.627 C 335.255 530.895,335.100 529.625,334.676 531.210 M64.846 536.000 C 64.865 536.330,65.024 537.050,65.200 537.600 L 65.520 538.600 65.554 537.600 C 65.573 537.050,65.413 536.330,65.200 536.000 C 64.855 535.467,64.816 535.467,64.846 536.000 M333.778 537.778 C 333.627 538.581,333.594 539.327,333.704 539.437 C 333.814 539.547,334.027 538.981,334.178 538.178 C 334.328 537.375,334.362 536.628,334.252 536.518 C 334.142 536.408,333.928 536.975,333.778 537.778 M65.857 541.800 C 65.999 542.900,66.241 544.880,66.396 546.200 L 66.678 548.600 66.713 546.600 C 66.733 545.500,66.490 543.520,66.174 542.200 C 65.614 539.864,65.606 539.854,65.857 541.800 M333.035 542.300 C 332.890 543.565,332.703 545.770,332.620 547.200 L 332.469 549.800 332.795 547.400 C 333.474 542.394,333.704 540.000,333.505 540.000 C 333.392 540.000,333.180 541.035,333.035 542.300 M67.085 551.227 C 67.208 552.642,67.374 553.875,67.454 553.967 C 67.781 554.341,67.560 549.756,67.225 549.227 C 66.999 548.869,66.946 549.620,67.085 551.227 M331.849 550.615 C 331.712 550.973,331.620 551.836,331.644 552.533 C 331.682 553.637,331.733 553.571,332.036 552.025 C 332.393 550.205,332.294 549.457,331.849 550.615 M67.668 555.000 C 67.674 555.440,67.824 556.250,68.000 556.800 L 68.320 557.800 68.332 556.800 C 68.338 556.250,68.189 555.440,68.000 555.000 L 67.656 554.200 67.668 555.000 M331.049 556.615 C 330.912 556.973,330.816 557.656,330.836 558.133 C 330.862 558.747,330.985 558.608,331.259 557.656 C 331.657 556.272,331.494 555.458,331.049 556.615 M330.232 561.800 C 330.068 562.900,329.787 564.970,329.607 566.400 C 329.427 567.830,329.178 569.810,329.053 570.800 L 328.826 572.600 329.222 571.000 C 329.439 570.120,329.794 568.140,330.011 566.600 C 330.228 565.060,330.513 563.135,330.644 562.323 C 330.775 561.511,330.803 560.611,330.706 560.323 C 330.609 560.035,330.396 560.700,330.232 561.800 M68.456 561.000 C 68.456 561.440,68.611 562.160,68.800 562.600 L 69.144 563.400 69.144 562.600 C 69.144 562.160,68.989 561.440,68.800 561.000 L 68.456 560.200 68.456 561.000 M69.452 566.000 C 69.556 567.430,69.796 569.680,69.986 571.000 L 70.331 573.400 70.166 570.800 C 70.075 569.370,69.834 567.120,69.632 565.800 L 69.263 563.400 69.452 566.000 M70.638 575.000 C 70.970 576.984,71.202 577.304,71.194 575.767 C 71.191 575.125,71.004 574.330,70.779 574.000 C 70.486 573.570,70.446 573.854,70.638 575.000 M328.249 575.415 C 328.112 575.773,328.016 576.456,328.036 576.933 C 328.062 577.547,328.185 577.408,328.459 576.456 C 328.857 575.072,328.694 574.258,328.249 575.415 M327.443 581.000 C 327.285 582.100,327.090 584.080,327.010 585.400 C 326.930 586.720,326.938 587.260,327.028 586.600 C 327.118 585.940,327.398 584.212,327.649 582.759 C 327.900 581.307,328.021 579.867,327.918 579.559 C 327.814 579.252,327.601 579.900,327.443 581.000 M71.246 580.000 C 71.265 580.330,71.424 581.050,71.600 581.600 L 71.920 582.600 71.954 581.600 C 71.973 581.050,71.813 580.330,71.600 580.000 C 71.255 579.467,71.216 579.467,71.246 580.000 M72.252 585.200 C 72.356 586.630,72.596 588.880,72.786 590.200 L 73.131 592.600 72.966 590.000 C 72.875 588.570,72.634 586.320,72.432 585.000 L 72.063 582.600 72.252 585.200 M326.256 588.884 C 326.121 589.388,326.034 590.700,326.062 591.800 C 326.109 593.629,326.139 593.561,326.406 591.000 C 326.713 588.052,326.665 587.360,326.256 588.884 M73.438 594.200 C 73.770 596.184,74.002 596.504,73.994 594.967 C 73.991 594.325,73.804 593.530,73.579 593.200 C 73.286 592.770,73.246 593.054,73.438 594.200 M325.449 594.615 C 325.312 594.973,325.218 595.746,325.240 596.333 C 325.273 597.191,325.352 597.095,325.646 595.840 C 326.022 594.239,325.895 593.453,325.449 594.615 M324.652 599.700 C 324.524 600.635,324.345 602.570,324.254 604.000 L 324.090 606.600 324.415 604.400 C 325.119 599.642,325.293 598.000,325.093 598.000 C 324.978 598.000,324.779 598.765,324.652 599.700 M74.046 599.200 C 74.065 599.530,74.224 600.250,74.400 600.800 L 74.720 601.800 74.754 600.800 C 74.773 600.250,74.613 599.530,74.400 599.200 C 74.055 598.667,74.016 598.667,74.046 599.200 M75.047 604.600 C 75.156 605.920,75.400 607.990,75.590 609.200 L 75.935 611.400 75.776 608.800 C 75.689 607.370,75.445 605.300,75.233 604.200 L 74.849 602.200 75.047 604.600 M323.449 607.815 C 323.312 608.173,323.222 609.216,323.250 610.133 C 323.298 611.731,323.313 611.710,323.618 609.602 C 323.947 607.334,323.885 606.681,323.449 607.815 M76.273 613.200 C 76.404 614.190,76.576 615.075,76.656 615.167 C 76.957 615.514,76.728 612.964,76.390 612.200 C 76.153 611.666,76.114 611.998,76.273 613.200 M322.649 613.815 C 322.512 614.173,322.416 614.856,322.436 615.333 C 322.462 615.947,322.585 615.808,322.859 614.856 C 323.257 613.472,323.094 612.658,322.649 613.815 M77.044 619.000 C 77.373 620.471,77.602 620.790,77.594 619.767 C 77.591 619.345,77.405 618.730,77.182 618.400 C 76.885 617.962,76.848 618.124,77.044 619.000 M321.800 620.000 C 321.648 620.691,321.614 621.347,321.724 621.457 C 321.834 621.567,322.048 621.091,322.200 620.400 C 322.352 619.709,322.386 619.053,322.276 618.943 C 322.166 618.833,321.952 619.309,321.800 620.000 M77.865 623.800 C 77.989 625.120,78.229 627.190,78.400 628.400 L 78.710 630.600 78.550 628.000 C 78.462 626.570,78.222 624.500,78.016 623.400 L 77.641 621.400 77.865 623.800 M321.320 624.000 C 321.320 625.210,321.395 625.705,321.487 625.100 C 321.578 624.495,321.578 623.505,321.487 622.900 C 321.395 622.295,321.320 622.790,321.320 624.000 M320.649 627.015 C 320.512 627.373,320.425 628.596,320.455 629.733 L 320.509 631.800 320.809 629.200 C 321.120 626.503,321.076 625.903,320.649 627.015 M79.082 632.821 C 79.208 633.799,79.375 634.675,79.455 634.767 C 79.781 635.142,79.560 632.155,79.221 631.621 C 78.984 631.246,78.935 631.670,79.082 632.821 M319.849 633.015 C 319.712 633.373,319.618 634.146,319.640 634.733 C 319.673 635.591,319.752 635.495,320.046 634.240 C 320.422 632.639,320.295 631.853,319.849 633.015 M79.646 637.200 C 79.665 637.530,79.824 638.250,80.000 638.800 L 80.320 639.800 80.354 638.800 C 80.373 638.250,80.213 637.530,80.000 637.200 C 79.655 636.667,79.616 636.667,79.646 637.200 M319.000 639.200 C 318.848 639.891,318.807 640.541,318.909 640.642 C 319.011 640.744,319.209 640.253,319.350 639.550 C 319.683 637.883,319.360 637.560,319.000 639.200 M80.665 642.600 C 80.789 643.920,81.029 645.990,81.200 647.200 L 81.510 649.400 81.350 646.800 C 81.262 645.370,81.022 643.300,80.816 642.200 L 80.441 640.200 80.665 642.600 M318.257 643.300 C 318.138 644.455,317.957 646.660,317.855 648.200 L 317.669 651.000 318.014 648.600 C 318.608 644.467,318.905 641.200,318.685 641.200 C 318.569 641.200,318.377 642.145,318.257 643.300 M81.850 651.600 C 82.175 653.841,82.402 654.160,82.394 652.367 C 82.391 651.615,82.208 650.730,81.988 650.400 C 81.709 649.981,81.667 650.342,81.850 651.600 M317.049 651.815 C 316.912 652.173,316.818 652.946,316.840 653.533 C 316.873 654.391,316.952 654.295,317.246 653.040 C 317.622 651.439,317.495 650.653,317.049 651.815 M75.293 656.400 C 75.293 657.170,75.375 657.485,75.476 657.100 C 75.576 656.715,75.576 656.085,75.476 655.700 C 75.375 655.315,75.293 655.630,75.293 656.400 M82.446 656.400 C 82.465 656.730,82.624 657.450,82.800 658.000 L 83.120 659.000 83.154 658.000 C 83.173 657.450,83.013 656.730,82.800 656.400 C 82.455 655.867,82.416 655.867,82.446 656.400 M316.267 657.867 C 316.120 658.013,316.015 658.598,316.034 659.167 C 316.068 660.181,316.075 660.179,316.421 659.020 C 316.785 657.803,316.731 657.402,316.267 657.867 M315.443 662.900 C 315.315 664.055,315.133 666.170,315.039 667.600 L 314.869 670.200 315.210 667.800 C 315.868 663.167,316.097 660.800,315.888 660.800 C 315.772 660.800,315.572 661.745,315.443 662.900 M83.444 663.000 C 83.773 664.471,84.002 664.790,83.994 663.767 C 83.991 663.345,83.805 662.730,83.582 662.400 C 83.285 661.962,83.248 662.124,83.444 663.000 M84.120 666.800 C 84.120 668.010,84.195 668.505,84.287 667.900 C 84.378 667.295,84.378 666.305,84.287 665.700 C 84.195 665.095,84.120 665.590,84.120 666.800 M84.685 671.627 C 84.808 673.042,84.974 674.275,85.054 674.367 C 85.381 674.741,85.160 670.156,84.825 669.627 C 84.599 669.269,84.546 670.020,84.685 671.627 M314.249 671.015 C 314.112 671.373,314.020 672.236,314.044 672.933 C 314.082 674.037,314.133 673.971,314.436 672.425 C 314.793 670.605,314.694 669.857,314.249 671.015 M85.246 675.600 C 85.265 675.930,85.424 676.650,85.600 677.200 L 85.920 678.200 85.954 677.200 C 85.973 676.650,85.813 675.930,85.600 675.600 C 85.255 675.067,85.216 675.067,85.246 675.600 M313.400 677.200 C 313.248 677.891,313.207 678.541,313.309 678.642 C 313.411 678.744,313.609 678.253,313.750 677.550 C 314.083 675.883,313.760 675.560,313.400 677.200 M312.615 682.300 C 312.452 683.565,312.171 685.680,311.990 687.000 C 311.810 688.320,311.566 690.300,311.450 691.400 L 311.237 693.400 311.620 691.600 C 311.976 689.930,312.487 686.496,313.063 681.900 C 313.195 680.855,313.214 680.000,313.107 680.000 C 313.000 680.000,312.779 681.035,312.615 682.300 M86.068 681.000 C 86.062 681.440,86.211 682.160,86.400 682.600 C 86.838 683.619,86.838 682.568,86.400 681.200 C 86.143 680.396,86.077 680.357,86.068 681.000 M86.920 685.600 C 86.920 686.810,86.995 687.305,87.087 686.700 C 87.178 686.095,87.178 685.105,87.087 684.500 C 86.995 683.895,86.920 684.390,86.920 685.600 M87.498 690.400 C 87.613 691.830,87.774 693.075,87.854 693.167 C 88.149 693.504,87.933 689.374,87.615 688.600 C 87.422 688.130,87.374 688.873,87.498 690.400 M88.238 695.400 C 88.570 697.384,88.802 697.704,88.794 696.167 C 88.791 695.525,88.604 694.730,88.379 694.400 C 88.086 693.970,88.046 694.254,88.238 695.400 M310.667 695.867 C 310.520 696.013,310.418 696.688,310.441 697.367 L 310.482 698.600 310.810 697.203 C 311.153 695.747,311.117 695.416,310.667 695.867 M88.846 700.400 C 88.865 700.730,89.024 701.450,89.200 702.000 L 89.520 703.000 89.554 702.000 C 89.573 701.450,89.413 700.730,89.200 700.400 C 88.855 699.867,88.816 699.867,88.846 700.400 M309.822 702.222 C 309.672 703.025,309.628 703.762,309.726 703.860 C 309.824 703.957,310.027 703.381,310.178 702.578 C 310.328 701.775,310.372 701.038,310.274 700.940 C 310.176 700.843,309.973 701.419,309.822 702.222 M89.865 705.800 C 89.989 707.120,90.229 709.190,90.400 710.400 L 90.710 712.600 90.550 710.000 C 90.462 708.570,90.222 706.500,90.016 705.400 L 89.641 703.400 89.865 705.800 M309.024 706.900 C 308.874 708.275,308.690 710.390,308.613 711.600 L 308.475 713.800 308.835 711.400 C 309.416 707.523,309.711 704.400,309.496 704.400 C 309.386 704.400,309.174 705.525,309.024 706.900 M91.050 714.800 C 91.375 717.041,91.602 717.360,91.594 715.567 C 91.591 714.815,91.408 713.930,91.188 713.600 C 90.909 713.181,90.867 713.542,91.050 714.800 M307.849 715.015 C 307.712 715.373,307.616 716.056,307.636 716.533 C 307.662 717.147,307.785 717.008,308.059 716.056 C 308.457 714.672,308.294 713.858,307.849 715.015 M91.668 719.200 C 91.688 720.239,92.318 721.946,92.332 721.000 C 92.338 720.560,92.189 719.840,92.000 719.400 C 91.789 718.910,91.661 718.832,91.668 719.200 M307.000 721.200 C 306.848 721.891,306.807 722.541,306.909 722.642 C 307.011 722.744,307.209 722.253,307.350 721.550 C 307.683 719.883,307.360 719.560,307.000 721.200 M92.652 724.600 C 92.761 725.920,93.003 728.080,93.190 729.400 L 93.531 731.800 93.370 729.200 C 93.281 727.770,93.039 725.610,92.832 724.400 L 92.455 722.200 92.652 724.600 M306.226 725.700 C 306.078 727.075,305.892 729.100,305.812 730.200 L 305.667 732.200 306.035 730.000 C 306.580 726.737,306.924 723.200,306.696 723.200 C 306.586 723.200,306.375 724.325,306.226 725.700 M93.838 733.400 C 94.170 735.384,94.402 735.704,94.394 734.167 C 94.391 733.525,94.204 732.730,93.979 732.400 C 93.686 731.970,93.646 732.254,93.838 733.400 M305.049 733.815 C 304.912 734.173,304.816 734.856,304.836 735.333 C 304.862 735.947,304.985 735.808,305.259 734.856 C 305.657 733.472,305.494 732.658,305.049 733.815 M94.446 738.000 C 94.465 738.330,94.624 739.050,94.800 739.600 L 95.120 740.600 95.154 739.600 C 95.173 739.050,95.013 738.330,94.800 738.000 C 94.455 737.467,94.416 737.467,94.446 738.000 M304.249 739.415 C 304.112 739.773,304.016 740.456,304.036 740.933 C 304.062 741.547,304.185 741.408,304.459 740.456 C 304.857 739.072,304.694 738.258,304.249 739.415 M303.464 744.400 C 303.124 746.975,302.771 751.464,303.024 750.000 C 303.119 749.450,303.398 747.826,303.645 746.391 C 303.892 744.957,304.018 743.427,303.924 742.991 C 303.831 742.556,303.624 743.190,303.464 744.400 M95.256 743.600 C 95.256 743.930,95.411 744.560,95.600 745.000 C 95.817 745.504,95.944 745.578,95.944 745.200 C 95.944 744.870,95.789 744.240,95.600 743.800 C 95.383 743.296,95.256 743.222,95.256 743.600 M96.220 748.200 C 96.306 749.520,96.554 751.410,96.770 752.400 L 97.163 754.200 96.948 752.200 C 96.831 751.100,96.583 749.210,96.398 748.000 L 96.063 745.800 96.220 748.200 M302.249 752.215 C 302.112 752.573,302.015 753.166,302.034 753.533 C 302.053 753.900,302.227 753.669,302.421 753.020 C 302.798 751.758,302.665 751.133,302.249 752.215 M97.246 754.800 C 97.265 755.130,97.424 755.850,97.600 756.400 L 97.920 757.400 97.954 756.400 C 97.973 755.850,97.813 755.130,97.600 754.800 C 97.255 754.267,97.216 754.267,97.246 754.800 M301.400 756.800 C 301.248 757.491,301.207 758.141,301.309 758.242 C 301.411 758.344,301.609 757.853,301.750 757.150 C 302.083 755.483,301.760 755.160,301.400 756.800 M300.661 761.200 C 300.499 762.410,300.299 764.480,300.216 765.800 C 300.133 767.120,300.138 767.660,300.228 767.000 C 300.318 766.340,300.595 764.626,300.843 763.191 C 301.091 761.757,301.218 760.227,301.124 759.791 C 301.031 759.356,300.822 759.990,300.661 761.200 M98.068 760.200 C 98.062 760.640,98.211 761.360,98.400 761.800 C 98.838 762.819,98.838 761.768,98.400 760.400 C 98.143 759.596,98.077 759.557,98.068 760.200 M99.036 765.200 C 99.135 766.630,99.381 768.700,99.583 769.800 L 99.951 771.800 99.753 769.400 C 99.644 768.080,99.398 766.010,99.205 764.800 L 98.855 762.600 99.036 765.200 M299.449 769.015 C 299.312 769.373,299.220 770.236,299.244 770.933 C 299.282 772.037,299.333 771.971,299.636 770.425 C 299.993 768.605,299.894 767.857,299.449 769.015 M100.238 774.200 C 100.570 776.184,100.802 776.504,100.794 774.967 C 100.791 774.325,100.604 773.530,100.379 773.200 C 100.086 772.770,100.046 773.054,100.238 774.200 M298.656 774.884 C 298.521 775.388,298.427 776.160,298.446 776.600 C 298.465 777.040,298.645 776.698,298.846 775.840 C 299.236 774.178,299.070 773.340,298.656 774.884 M100.868 778.800 C 100.888 779.839,101.518 781.546,101.532 780.600 C 101.538 780.160,101.389 779.440,101.200 779.000 C 100.989 778.510,100.861 778.432,100.868 778.800 M297.822 780.622 C 297.672 781.425,297.628 782.162,297.726 782.260 C 297.824 782.357,298.027 781.781,298.178 780.978 C 298.328 780.175,298.372 779.438,298.274 779.340 C 298.176 779.243,297.973 779.819,297.822 780.622 M101.860 784.200 C 101.981 785.520,102.231 787.500,102.416 788.600 C 102.750 790.588,102.750 790.586,102.564 788.200 C 102.461 786.880,102.211 784.900,102.009 783.800 L 101.641 781.800 101.860 784.200 M297.314 784.600 C 297.317 785.700,297.395 786.103,297.487 785.495 C 297.579 784.886,297.577 783.986,297.482 783.495 C 297.387 783.003,297.311 783.500,297.314 784.600 M296.649 787.415 C 296.512 787.773,296.420 788.636,296.444 789.333 C 296.482 790.437,296.533 790.371,296.836 788.825 C 297.193 787.005,297.094 786.257,296.649 787.415 M103.038 792.600 C 103.370 794.584,103.602 794.904,103.594 793.367 C 103.591 792.725,103.404 791.930,103.179 791.600 C 102.886 791.170,102.846 791.454,103.038 792.600 M295.856 793.284 C 295.721 793.788,295.627 794.560,295.646 795.000 C 295.665 795.440,295.845 795.098,296.046 794.240 C 296.436 792.578,296.270 791.740,295.856 793.284 M103.862 798.200 C 103.996 799.080,104.172 799.875,104.253 799.967 C 104.556 800.310,104.329 798.168,103.981 797.400 C 103.729 796.842,103.693 797.085,103.862 798.200 M295.040 799.240 C 294.893 800.157,294.852 800.985,294.947 801.080 C 295.042 801.176,295.246 800.510,295.400 799.600 C 295.554 798.690,295.596 797.862,295.493 797.760 C 295.390 797.657,295.187 798.323,295.040 799.240 M104.501 802.200 C 104.505 803.080,104.587 803.393,104.683 802.895 C 104.779 802.398,104.775 801.678,104.675 801.295 C 104.575 800.913,104.496 801.320,104.501 802.200 M294.509 803.200 C 294.509 804.190,294.587 804.595,294.682 804.100 C 294.778 803.605,294.778 802.795,294.682 802.300 C 294.587 801.805,294.509 802.210,294.509 803.200 M105.088 806.200 C 105.211 807.520,105.376 808.675,105.456 808.767 C 105.735 809.089,105.516 805.788,105.193 804.800 C 104.989 804.179,104.949 804.709,105.088 806.200 M293.856 806.484 C 293.721 806.988,293.631 808.030,293.655 808.800 C 293.689 809.869,293.775 809.680,294.018 808.002 C 294.353 805.692,294.272 804.933,293.856 806.484 M105.873 811.600 C 106.004 812.590,106.176 813.475,106.256 813.567 C 106.557 813.914,106.328 811.364,105.990 810.600 C 105.753 810.066,105.714 810.398,105.873 811.600 M293.076 812.010 C 292.930 812.555,292.827 813.450,292.846 814.000 C 292.871 814.718,292.984 814.557,293.249 813.427 C 293.655 811.695,293.500 810.425,293.076 812.010 M99.293 815.200 C 99.293 815.970,99.375 816.285,99.476 815.900 C 99.576 815.515,99.576 814.885,99.476 814.500 C 99.375 814.115,99.293 814.430,99.293 815.200 M106.480 816.400 C 106.480 816.950,106.624 817.850,106.800 818.400 L 107.120 819.400 107.120 818.400 C 107.120 817.850,106.976 816.950,106.800 816.400 L 106.480 815.400 106.480 816.400 M292.200 818.800 C 292.046 819.710,292.004 820.538,292.107 820.640 C 292.210 820.743,292.413 820.077,292.560 819.160 C 292.707 818.243,292.748 817.415,292.653 817.320 C 292.558 817.224,292.354 817.890,292.200 818.800 M107.271 821.800 C 107.239 822.900,107.355 824.025,107.530 824.301 C 107.784 824.700,126.507 824.781,199.824 824.701 L 291.800 824.600 291.852 823.200 L 291.904 821.800 291.727 823.101 L 291.549 824.402 199.675 824.301 L 107.800 824.200 107.565 822.000 L 107.330 819.800 107.271 821.800 " stroke="none" fill="#545454" fill-rule="evenodd">
    </path>
  </g>

 </a>
 </svg>
</svg>
